<svg width="40" height="41" viewBox="0 0 40 41" fill="none" xmlns="http://www.w3.org/2000/svg">
<mask id="mask0_956_443" style="mask-type:alpha" maskUnits="userSpaceOnUse" x="0" y="0" width="40" height="41">
<rect y="0.0279541" width="40" height="40" fill="#D9D9D9"/>
</mask>
<g mask="url(#mask0_956_443)">
<path d="M6.40157 37.2992C5.39157 37.2992 4.52695 36.9395 3.8077 36.2203C3.08845 35.501 2.72882 34.6364 2.72882 33.6264V18.7303C2.72882 17.9892 2.92931 17.3099 3.33028 16.6923C3.73125 16.0747 4.27735 15.6208 4.96857 15.3305L13.0242 11.8764C13.6284 11.6179 14.2096 11.6239 14.7675 11.8942C15.3255 12.1645 15.6045 12.5956 15.6045 13.1874V14.1409L21.407 11.7931C22.0217 11.5555 22.5972 11.6182 23.1334 11.9809C23.6697 12.3437 23.9378 12.8503 23.9378 13.5008V16.0902H37.2712V33.6264C37.2712 34.6364 36.9115 35.501 36.1923 36.2203C35.473 36.9395 34.6084 37.2992 33.5984 37.2992H6.40157ZM37.0133 14.1457H29.0465L30.2832 4.51469C30.3479 4.05844 30.549 3.67757 30.8865 3.37207C31.2241 3.06657 31.6212 2.91382 32.0779 2.91382H33.9487C34.4079 2.91382 34.806 3.06171 35.1428 3.35749C35.4796 3.65329 35.6798 4.03118 35.7434 4.49115L37.0133 14.1457ZM20.0016 30.028C20.4778 30.028 20.8765 29.867 21.1977 29.5452C21.5188 29.2233 21.6793 28.8245 21.6793 28.3487V25.0406C21.6793 24.5648 21.5182 24.166 21.1961 23.8442C20.8739 23.5223 20.4747 23.3613 19.9984 23.3613C19.5222 23.3613 19.1235 23.5223 18.8023 23.8442C18.4812 24.166 18.3207 24.5648 18.3207 25.0406V28.3487C18.3207 28.8245 18.4817 29.2233 18.8039 29.5452C19.1261 29.867 19.5253 30.028 20.0016 30.028ZM13.04 30.028C13.5135 30.028 13.9122 29.867 14.2362 29.5452C14.5602 29.2233 14.7222 28.8245 14.7222 28.3487V25.0406C14.7222 24.5648 14.5601 24.166 14.2358 23.8442C13.9115 23.5223 13.5096 23.3613 13.0303 23.3613C12.5568 23.3613 12.1567 23.5223 11.83 23.8442C11.5033 24.166 11.3399 24.5648 11.3399 25.0406V28.3487C11.3399 28.8245 11.5049 29.2233 11.8349 29.5452C12.1648 29.867 12.5665 30.028 13.04 30.028ZM26.9697 30.028C27.4432 30.028 27.8433 29.867 28.17 29.5452C28.4967 29.2233 28.66 28.8245 28.66 28.3487V25.0406C28.66 24.5648 28.4951 24.166 28.1651 23.8442C27.8352 23.5223 27.4334 23.3613 26.9599 23.3613C26.4865 23.3613 26.0877 23.5223 25.7637 23.8442C25.4398 24.166 25.2778 24.5648 25.2778 25.0406V28.3487C25.2778 28.8245 25.4399 29.2233 25.7642 29.5452C26.0885 29.867 26.4903 30.028 26.9697 30.028Z" fill="#1C1B1F"/>
</g>
</svg>
