<svg width="41" height="41" viewBox="0 0 41 41" fill="none" xmlns="http://www.w3.org/2000/svg">
<mask id="mask0_956_464" style="mask-type:alpha" maskUnits="userSpaceOnUse" x="0" y="0" width="41" height="41">
<rect x="0.562622" y="0.527954" width="40" height="40" fill="#D9D9D9"/>
</mask>
<g mask="url(#mask0_956_464)">
<path d="M14.1864 36.1325H6.9642C5.94957 36.1325 5.08377 35.774 4.36683 35.0571C3.64991 34.3402 3.29145 33.4744 3.29145 32.4597V14.2955C3.29145 13.5395 3.5009 12.8502 3.91979 12.2275C4.33868 11.605 4.90359 11.1532 5.61454 10.8722L19.1973 5.42654C19.6405 5.25221 20.0956 5.16504 20.5626 5.16504C21.0296 5.16504 21.4847 5.25221 21.928 5.42654L35.5264 10.8722C36.2269 11.1532 36.7866 11.605 37.2055 12.2275C37.6243 12.8502 37.8338 13.5395 37.8338 14.2955V32.4597C37.8338 33.4744 37.4753 34.3402 36.7584 35.0571C36.0415 35.774 35.1757 36.1325 34.161 36.1325H26.9388V23.3958H14.1864V36.1325ZM16.1309 36.1325V33.3547H18.9086V36.1325H16.1309ZM19.1737 31.1325V28.3547H21.9515V31.1325H19.1737ZM22.2166 36.1325V33.3547H24.9944V36.1325H22.2166Z" fill="#1C1B1F"/>
</g>
</svg>
