<svg width="69" height="68" viewBox="0 0 69 68" fill="none" xmlns="http://www.w3.org/2000/svg">
<path d="M60.2499 35.7756V39.9006C60.2499 40.6603 59.6342 41.2753 58.8752 41.2753H54.7502C53.9904 41.2753 53.3754 40.6596 53.3754 39.9006V35.7756C53.3754 35.0158 53.9912 34.4008 54.7502 34.4008H58.8752C59.6349 34.4008 60.2499 35.0166 60.2499 35.7756ZM67.4687 34.4008H63.3437C62.5839 34.4008 61.9689 35.0166 61.9689 35.7756V39.9006C61.9689 40.6603 62.5847 41.2753 63.3437 41.2753H67.4687C68.2284 41.2753 68.8434 40.6596 68.8434 39.9006V35.7756C68.8434 35.0158 68.2277 34.4008 67.4687 34.4008ZM58.8752 42.9943H54.7502C53.9904 42.9943 53.3754 43.6101 53.3754 44.3691V48.4941C53.3754 49.2538 53.9912 49.8688 54.7502 49.8688H58.8752C59.6349 49.8688 60.2499 49.2531 60.2499 48.4941V44.3691C60.2499 43.6093 59.6342 42.9943 58.8752 42.9943ZM67.4687 42.9943H63.3437C62.5839 42.9943 61.9689 43.6101 61.9689 44.3691V48.4941C61.9689 49.2538 62.5847 49.8688 63.3437 49.8688H67.4687C68.2284 49.8688 68.8434 49.2531 68.8434 48.4941V44.3691C68.8434 43.6093 68.2277 42.9943 67.4687 42.9943ZM68.8434 12.9733V21.4528C68.8434 21.9591 68.4324 22.3693 67.9269 22.3693H61.9689V31.8223C61.9689 32.0601 61.8729 32.2753 61.7169 32.4298C61.5617 32.5858 61.3472 32.6818 61.1102 32.6818C60.6354 32.6818 60.2507 32.2971 60.2507 31.8231V22.3693H25.8759V56.7441H33.0947C33.8537 56.7441 34.4694 57.3598 34.4694 58.1188V65.6811C34.4694 66.4401 33.8537 67.0558 33.0947 67.0558H8.34393C7.58493 67.0558 6.96918 66.4401 6.96918 65.6811V58.1188C6.96918 57.3598 7.58493 56.7441 8.34393 56.7441H15.5627V22.3693H12.1254V22.7128C12.1254 23.4718 11.5097 24.0876 10.7507 24.0876H1.46868C0.709683 24.0876 0.0939331 23.4718 0.0939331 22.7128V13.4316C0.0939331 12.6726 0.709683 12.0568 1.46868 12.0568H15.5627L19.8609 0.594563C20.1579 -0.198188 21.2799 -0.198188 21.5769 0.594563L25.8752 12.0568H67.9269C68.4332 12.0568 68.8434 12.4678 68.8434 12.9733ZM8.68743 16.8688C8.68743 16.1098 8.07168 15.4941 7.31268 15.4941H4.90668C4.14768 15.4941 3.53193 16.1098 3.53193 16.8688V17.5566C3.53193 18.3156 4.14768 18.9313 4.90668 18.9313H7.31268C8.07168 18.9313 8.68743 18.3156 8.68743 17.5566V16.8688ZM15.5627 13.7751H12.1254V20.6503H15.5627V13.7751ZM17.3987 12.0561H24.0392L20.7189 3.20081L17.3987 12.0561ZM20.7189 15.9966L22.9412 13.7743H18.4974L20.7197 15.9966H20.7189ZM20.7189 18.4273L18.4967 20.6496H22.9404L20.7182 18.4273H20.7189ZM17.2817 19.4338L19.5039 17.2116L17.2817 14.9893V19.4331V19.4338ZM17.2817 26.9166L21.8304 22.3678H17.2817V26.9166ZM17.2817 34.3993L21.8304 29.8506H17.2817V34.3993ZM17.2817 41.8821L21.8304 37.3333H17.2817V41.8821ZM17.2817 49.3648L21.8304 44.8161H17.2817V49.3648ZM17.3859 56.7433L21.8297 52.2996H17.2809V56.7433H17.3852H17.3859ZM24.1562 52.4031L19.8159 56.7433H24.1562V52.4031ZM24.1562 44.9203L18.4967 50.5806H24.1562V44.9203ZM24.1562 37.4383L18.4967 43.0978H24.1562V37.4383ZM24.1562 29.9556L18.4967 35.6151H24.1562V29.9556ZM24.1562 22.4728L18.4967 28.1323H24.1562V22.4728ZM24.1562 14.9901L21.9339 17.2123L24.1562 19.4346V14.9908V14.9901ZM25.8752 19.4338L31.5347 13.7743H25.8752V19.4338ZM32.7504 14.9901L27.0909 20.6496H32.7504V14.9901ZM34.4694 19.4338L40.1289 13.7743H34.4694V19.4338ZM41.3447 14.9901L35.6852 20.6496H41.3447V14.9901ZM43.0637 19.4338L48.7232 13.7743H43.0637V19.4338ZM49.9389 14.9901L44.2794 20.6496H49.9389V14.9901ZM51.6579 19.4338L57.3174 13.7743H51.6579V19.4338ZM58.5332 14.9901L52.8737 20.6496H58.5332V14.9901ZM65.9117 13.7743H60.2522V19.4338L65.9117 13.7743ZM67.1274 14.9901L61.4679 20.6496H67.1274V14.9901Z" fill="black"/>
</svg>
