<?xml version="1.0" encoding="UTF-8" standalone="no"?>
<svg
   width="20.536745"
   height="48.921394"
   viewBox="0 0 20.536745 48.921394"
   fill="none"
   version="1.1"
   id="svg1"
   sodipodiDocname="flightsmode.svg"
   xmlSpace="preserve"
   xmlnsSodipodi="http://sodipodi.sourceforge.net/DTD/sodipodi-0.dtd"
   xmlns="http://www.w3.org/2000/svg"
   xmlnsSvg="http://www.w3.org/2000/svg"><defs
     id="defs1"><mask
       id="mask0_956_473-9"
       maskUnits="userSpaceOnUse"
       x="0"
       y="0"
       width="25"
       height="25"><rect
         x="0.87475598"
         y="0.0279541"
         width="24"
         height="24"
         fill="#d9d9d9"
         id="rect1-1" /></mask></defs><sodipodiNamedview
     id="namedview1"
     pagecolor="#ffffff"
     bordercolor="#000000"
     borderopacity="0.25"
    /><mask
     id="mask0_956_473"
     maskUnits="userSpaceOnUse"
     x="0"
     y="0"
     width="25"
     height="25"><rect
       x="0.87475598"
       y="0.0279541"
       width="24"
       height="24"
       fill="#d9d9d9"
       id="rect1" /></mask><g
     mask="url(#mask0_956_473)"
     id="g1"
     transform="translate(-2.8784591,-3.01379)"><path
       d="m 7.48453,17.4182 -2.5,-1.375 C 4.73525,15.9055 4.59104,15.6984 4.5519,15.422 4.51277,15.1455 4.59285,14.9077 4.79213,14.7084 l 0.39892,-0.399 c 0.09494,-0.0949 0.20708,-0.1643 0.33643,-0.2081 0.12935,-0.0438 0.25924,-0.0527 0.38967,-0.0266 l 2.04455,0.3 3.4902,-3.4761 L 4.97693,7.36817 C 4.65156,7.18774 4.46098,6.91346 4.40518,6.54534 4.34938,6.17723 4.45445,5.86019 4.7204,5.59424 L 5.05518,5.25944 C 5.20011,5.11453 5.3646,5.01598 5.54865,4.96379 c 0.18407,-0.05216 0.37465,-0.05216 0.57175,0 l 8.9337,2.29675 3.7587,-3.72282 c 0.3493,-0.34929 0.777,-0.52393 1.2832,-0.52393 0.5061,0 0.9338,0.17464 1.2831,0.52393 0.3493,0.34928 0.5239,0.77465 0.5239,1.2761 0,0.50145 -0.1746,0.92682 -0.5239,1.2761 l -3.7369,3.7728 2.2967,8.84128 c 0.0522,0.2232 0.048,0.4422 -0.0125,0.6571 -0.0605,0.2149 -0.1679,0.3995 -0.3223,0.5538 l -0.1532,0.1674 c -0.2993,0.2993 -0.6573,0.4169 -1.074,0.3527 -0.4166,-0.0641 -0.7235,-0.2802 -0.9206,-0.6484 l -3.4522,-6.3217 -3.4619,3.4902 0.2717,1.9522 c 0.0261,0.1543 0.013,0.3098 -0.0391,0.4663 -0.0522,0.1565 -0.1341,0.2906 -0.2457,0.4022 l -0.1674,0.1674 C 10.1291,20.1758 9.84432,20.2725 9.50735,20.2334 9.1704,20.1943 8.92004,20.024 8.75625,19.7225 Z"
       fill="#000000"
       id="path1" /></g><g
     style="fill:#000000;font-variation-settings:normal;opacity:1;vector-effect:none;fill-opacity:0.8509804;stroke-width:1;stroke-linecap:butt;stroke-linejoin:miter;stroke-miterlimit:4;stroke-dasharray:none;stroke-dashoffset:0;stroke-opacity:1;-inkscape-stroke:none;stop-color:#000000;stop-opacity:1"
     id="g2"
     transform="translate(-2.6093602,25.455395)"><path
       d="M 4.28778,18.9007 2.68453,13.1051 C 2.578,12.6979 2.5847,12.295 2.70463,11.8964 2.82457,11.4979 3.08635,11.225 3.48998,11.0779 L 4.39431,10.7551 V 6.02792 c 0,-0.67247 0.24293,-1.24693 0.7288,-1.72338 0.48588,-0.47646 1.06976,-0.7147 1.75165,-0.7147 H 9.39431 V 1.91487 c 0,-0.36812 0.1288,-0.68098 0.3864,-0.9386 C 10.0383,0.718653 10.3512,0.589844 10.7193,0.589844 h 4.3109 c 0.3681,0 0.681,0.128809 0.9386,0.386426 0.2576,0.25762 0.3864,0.57048 0.3864,0.9386 v 1.67497 h 2.5196 c 0.6818,0 1.2657,0.23824 1.7516,0.7147 0.4859,0.47645 0.7288,1.05091 0.7288,1.72338 v 4.72718 l 0.9043,0.3228 c 0.3877,0.1428 0.6479,0.4045 0.7805,0.7853 0.1326,0.3809 0.1409,0.7948 0.025,1.2419 l -1.6033,5.7956 c -0.6848,0 -1.3226,-0.0918 -1.9136,-0.2755 -0.5909,-0.1837 -1.1266,-0.4234 -1.607,-0.719 -0.1616,-0.0906 -0.3287,-0.1627 -0.5011,-0.2163 -0.1725,-0.0536 -0.3515,-0.0757 -0.537,-0.0663 -0.1855,0.0094 -0.3692,0.0409 -0.5511,0.0945 -0.1819,0.0537 -0.3536,0.1305 -0.5152,0.2305 -0.4239,0.2862 -0.8848,0.5165 -1.3826,0.6907 -0.4978,0.1743 -1.0243,0.2614 -1.5793,0.2614 -0.5551,0 -1.0816,-0.0871 -1.5794,-0.2614 C 10.7976,18.4651 10.3367,18.2348 9.91281,17.9486 9.75121,17.8486 9.57947,17.7718 9.39758,17.7181 9.2157,17.6645 9.03201,17.633 8.84651,17.6236 8.66099,17.6142 8.482,17.6363 8.30953,17.6899 c -0.17247,0.0536 -0.33949,0.1257 -0.50107,0.2163 -0.48045,0.2956 -1.01614,0.5353 -1.60708,0.719 -0.59095,0.1837 -1.22881,0.2755 -1.9136,0.2755 z m -0.088,4.5653 c -0.36813,0 -0.681,-0.1288 -0.9386,-0.3864 C 3.00357,22.822 2.87476,22.5091 2.87476,22.141 c 0,-0.3681 0.12881,-0.681 0.38642,-0.9386 0.2576,-0.2576 0.57047,-0.3865 0.9386,-0.3865 h 0.67498 c 0.5645,0 1.12301,-0.0702 1.67555,-0.2108 0.55253,-0.1406 1.08604,-0.3515 1.60052,-0.6326 0.10219,-0.0594 0.21686,-0.104 0.34403,-0.1337 0.12718,-0.0297 0.25381,-0.0446 0.3799,-0.0446 0.12608,0 0.25271,0.0149 0.3799,0.0446 0.12716,0.0297 0.24184,0.0743 0.34402,0.1337 0.51452,0.2739 1.04802,0.4746 1.60052,0.6021 0.5525,0.1276 1.1111,0.1913 1.6756,0.1913 0.5645,0 1.123,-0.0637 1.6755,-0.1913 0.5525,-0.1275 1.086,-0.3282 1.6005,-0.6021 0.1022,-0.0594 0.2169,-0.104 0.3441,-0.1337 0.1271,-0.0297 0.2538,-0.0446 0.3799,-0.0446 0.126,0 0.2527,0.0149 0.3799,0.0446 0.1271,0.0297 0.2418,0.0743 0.344,0.1337 0.5145,0.2811 1.048,0.492 1.6005,0.6326 0.5525,0.1406 1.1111,0.2108 1.6756,0.2108 h 0.6749 c 0.3682,0 0.681,0.1289 0.9386,0.3865 0.2576,0.2576 0.3865,0.5705 0.3865,0.9386 0,0.3681 -0.1289,0.681 -0.3865,0.9386 -0.2576,0.2576 -0.5704,0.3864 -0.9386,0.3864 h -0.6749 c -0.7,0 -1.3834,-0.0833 -2.05,-0.25 -0.6667,-0.1667 -1.3167,-0.4167 -1.95,-0.75 -0.6334,0.3333 -1.2875,0.5833 -1.9625,0.75 -0.675,0.1667 -1.3542,0.25 -2.0375,0.25 -0.6834,0 -1.3625,-0.0833 -2.0375,-0.25 -0.675,-0.1667 -1.32921,-0.4167 -1.96254,-0.75 -0.63334,0.3333 -1.28334,0.5833 -1.95,0.75 -0.66667,0.1667 -1.35,0.25 -2.05,0.25 z M 7.04433,9.94967 12.0519,8.34097 c 0.266,-0.08552 0.5402,-0.12828 0.8229,-0.12828 0.2826,0 0.5569,0.04276 0.8228,0.12828 l 5.0076,1.6087 V 6.23989 H 7.04433 Z"
       fill="#000000"
       id="path1-2"
       mask="url(#mask1)"
       style="font-variation-settings:normal;vector-effect:none;fill:#000000;fill-opacity:0.8509804;stroke-width:1;stroke-linecap:butt;stroke-linejoin:miter;stroke-miterlimit:4;stroke-dasharray:none;stroke-dashoffset:0;stroke-opacity:1;-inkscape-stroke:none;stop-color:#000000;stop-opacity:1" /></g></svg>
