<svg width="70" height="68" viewBox="0 0 70 68" fill="none" xmlns="http://www.w3.org/2000/svg">
<path d="M9.12481 35.7756V39.9006C9.12481 40.6603 9.74057 41.2753 10.4996 41.2753H14.6246C15.3843 41.2753 15.9993 40.6596 15.9993 39.9006V35.7756C15.9993 35.0158 15.3836 34.4008 14.6246 34.4008H10.4996C9.73981 34.4008 9.12481 35.0166 9.12481 35.7756ZM1.90606 34.4008H6.03106C6.79081 34.4008 7.40582 35.0166 7.40582 35.7756V39.9006C7.40582 40.6603 6.79006 41.2753 6.03106 41.2753H1.90606C1.14631 41.2753 0.531311 40.6596 0.531311 39.9006V35.7756C0.531311 35.0158 1.14706 34.4008 1.90606 34.4008ZM10.4996 42.9943H14.6246C15.3843 42.9943 15.9993 43.6101 15.9993 44.3691V48.4941C15.9993 49.2538 15.3836 49.8688 14.6246 49.8688H10.4996C9.73981 49.8688 9.12481 49.2531 9.12481 48.4941V44.3691C9.12481 43.6093 9.74057 42.9943 10.4996 42.9943ZM1.90606 42.9943H6.03106C6.79081 42.9943 7.40582 43.6101 7.40582 44.3691V48.4941C7.40582 49.2538 6.79006 49.8688 6.03106 49.8688H1.90606C1.14631 49.8688 0.531311 49.2531 0.531311 48.4941V44.3691C0.531311 43.6093 1.14706 42.9943 1.90606 42.9943ZM0.531311 12.9733V21.4528C0.531311 21.9591 0.942314 22.3693 1.44781 22.3693H7.40582V31.8223C7.40582 32.0601 7.50181 32.2753 7.65781 32.4298C7.81306 32.5858 8.02757 32.6818 8.26456 32.6818C8.73932 32.6818 9.12406 32.2971 9.12406 31.8231V22.3693H43.4988V56.7441H36.2801C35.5211 56.7441 34.9053 57.3598 34.9053 58.1188V65.6811C34.9053 66.4401 35.5211 67.0558 36.2801 67.0558H61.0308C61.7898 67.0558 62.4056 66.4401 62.4056 65.6811V58.1188C62.4056 57.3598 61.7898 56.7441 61.0308 56.7441H53.8121V22.3693H57.2493V22.7128C57.2493 23.4718 57.8651 24.0876 58.6241 24.0876H67.9061C68.6651 24.0876 69.2808 23.4718 69.2808 22.7128V13.4316C69.2808 12.6726 68.6651 12.0568 67.9061 12.0568H53.8121L49.5138 0.594563C49.2168 -0.198188 48.0948 -0.198188 47.7978 0.594563L43.4996 12.0568H1.44781C0.941566 12.0568 0.531311 12.4678 0.531311 12.9733ZM60.6873 16.8688C60.6873 16.1098 61.3031 15.4941 62.0621 15.4941H64.4681C65.2271 15.4941 65.8428 16.1098 65.8428 16.8688V17.5566C65.8428 18.3156 65.2271 18.9313 64.4681 18.9313H62.0621C61.3031 18.9313 60.6873 18.3156 60.6873 17.5566V16.8688ZM53.8121 13.7751H57.2493V20.6503H53.8121V13.7751ZM51.9761 12.0561H45.3356L48.6558 3.20081L51.9761 12.0561ZM48.6558 15.9966L46.4336 13.7743H50.8773L48.6551 15.9966H48.6558ZM48.6558 18.4273L50.8781 20.6496H46.4343L48.6566 18.4273H48.6558ZM52.0931 19.4338L49.8708 17.2116L52.0931 14.9893V19.4331V19.4338ZM52.0931 26.9166L47.5443 22.3678H52.0931V26.9166ZM52.0931 34.3993L47.5443 29.8506H52.0931V34.3993ZM52.0931 41.8821L47.5443 37.3333H52.0931V41.8821ZM52.0931 49.3648L47.5443 44.8161H52.0931V49.3648ZM51.9888 56.7433L47.5451 52.2996H52.0938V56.7433H51.9896H51.9888ZM45.2186 52.4031L49.5588 56.7433H45.2186V52.4031ZM45.2186 44.9203L50.8781 50.5806H45.2186V44.9203ZM45.2186 37.4383L50.8781 43.0978H45.2186V37.4383ZM45.2186 29.9556L50.8781 35.6151H45.2186V29.9556ZM45.2186 22.4728L50.8781 28.1323H45.2186V22.4728ZM45.2186 14.9901L47.4408 17.2123L45.2186 19.4346V14.9908V14.9901ZM43.4996 19.4338L37.8401 13.7743H43.4996V19.4338ZM36.6243 14.9901L42.2838 20.6496H36.6243V14.9901ZM34.9053 19.4338L29.2458 13.7743H34.9053V19.4338ZM28.0301 14.9901L33.6896 20.6496H28.0301V14.9901ZM26.3111 19.4338L20.6516 13.7743H26.3111V19.4338ZM19.4358 14.9901L25.0953 20.6496H19.4358V14.9901ZM17.7168 19.4338L12.0573 13.7743H17.7168V19.4338ZM10.8416 14.9901L16.5011 20.6496H10.8416V14.9901ZM3.46307 13.7743H9.12256V19.4338L3.46307 13.7743ZM2.24731 14.9901L7.90681 20.6496H2.24731V14.9901Z" fill="black"/>
</svg>
