<svg width="40" height="41" viewBox="0 0 40 41" fill="none" xmlns="http://www.w3.org/2000/svg">
<mask id="mask0_956_505" style="mask-type:alpha" maskUnits="userSpaceOnUse" x="0" y="0" width="40" height="41">
<rect y="0.527954" width="40" height="40" fill="#D9D9D9"/>
</mask>
<g mask="url(#mask0_956_505)">
<path d="M8.19448 10.1668C7.68056 10.1668 7.24602 9.98876 6.89085 9.63264C6.53569 9.27653 6.3581 8.84084 6.3581 8.32556C6.3581 7.81031 6.53569 7.37363 6.89085 7.01552C7.24602 6.65744 7.68056 6.47839 8.19448 6.47839H31.8611C32.375 6.47839 32.8096 6.65906 33.1647 7.02039C33.5199 7.38175 33.6975 7.82006 33.6975 8.33531C33.6975 8.85059 33.5199 9.28466 33.1647 9.63752C32.8096 9.99038 32.375 10.1668 31.8611 10.1668H8.19448ZM8.33335 34.5896C7.81946 34.5896 7.38494 34.412 7.02977 34.0568C6.67458 33.7016 6.49698 33.2671 6.49698 32.7532V24.4428H5.80735C5.25446 24.3905 4.8136 24.143 4.48477 23.7004C4.15594 23.2577 4.05352 22.7665 4.17752 22.2266L6.03381 13.8377C6.11956 13.4102 6.33162 13.0619 6.66998 12.7927C7.00837 12.5236 7.39455 12.3891 7.82852 12.3891H32.1993C32.6333 12.3891 33.0194 12.5236 33.3578 12.7927C33.6962 13.0619 33.9083 13.4102 33.994 13.8377L35.8503 22.2266C35.9795 22.7874 35.8745 23.2983 35.5352 23.7592C35.1959 24.2202 34.7629 24.4507 34.2361 24.4507H33.5308V32.7532C33.5308 33.2671 33.3528 33.7016 32.9966 34.0568C32.6406 34.412 32.2049 34.5896 31.6896 34.5896C31.1743 34.5896 30.7403 34.412 30.3874 34.0568C30.0345 33.7016 29.8581 33.2671 29.8581 32.7532V24.4507H23.5586V32.7532C23.5586 33.2671 23.381 33.7016 23.0259 34.0568C22.6707 34.412 22.2361 34.5896 21.7222 34.5896H8.33335ZM10.1697 30.9169H19.8859V24.4507H10.1697V30.9169Z" fill="#1C1B1F"/>
</g>
</svg>
