<svg width="41" height="41" viewBox="0 0 41 41" fill="none" xmlns="http://www.w3.org/2000/svg">
<mask id="mask0_956_484" style="mask-type:alpha" maskUnits="userSpaceOnUse" x="0" y="0" width="41" height="41">
<rect x="0.937378" y="0.527954" width="40" height="40" fill="#D9D9D9"/>
</mask>
<g mask="url(#mask0_956_484)">
<path d="M14.5612 36.1325H7.33895C6.32431 36.1325 5.45852 35.774 4.74157 35.0571C4.02466 34.3402 3.6662 33.4744 3.6662 32.4597V14.2955C3.6662 13.5395 3.87564 12.8502 4.29453 12.2275C4.71342 11.605 5.27834 11.1532 5.98928 10.8722L19.572 5.42654C20.0153 5.25221 20.4704 5.16504 20.9374 5.16504C21.4044 5.16504 21.8595 5.25221 22.3027 5.42654L35.9012 10.8722C36.6016 11.1532 37.1613 11.605 37.5802 12.2275C37.9991 12.8502 38.2085 13.5395 38.2085 14.2955V32.4597C38.2085 33.4744 37.8501 34.3402 37.1331 35.0571C36.4162 35.774 35.5504 36.1325 34.5358 36.1325H27.3136V23.3958H14.5612V36.1325ZM16.5056 36.1325V33.3547H19.2834V36.1325H16.5056ZM19.5485 31.1325V28.3547H22.3262V31.1325H19.5485ZM22.5914 36.1325V33.3547H25.3691V36.1325H22.5914Z" fill="#1C1B1F"/>
</g>
</svg>
