<svg width="89" height="49" viewBox="0 0 89 49" fill="none" xmlns="http://www.w3.org/2000/svg">
<mask id="mask0_956_489" style="mask-type:alpha" maskUnits="userSpaceOnUse" x="32" y="0" width="25" height="25">
<rect x="32.9687" y="0.527954" width="24" height="24" fill="#D9D9D9"/>
</mask>
<g mask="url(#mask0_956_489)">
<path d="M39.5785 17.9182L37.0785 16.5432C36.8292 16.4055 36.685 16.1984 36.6458 15.922C36.6067 15.6455 36.6868 15.4077 36.8861 15.2084L37.285 14.8094C37.3799 14.7145 37.4921 14.6451 37.6214 14.6013C37.7508 14.5575 37.8806 14.5486 38.0111 14.5747L40.0556 14.8747L43.5458 11.3986L37.0709 7.86817C36.7455 7.68774 36.5549 7.41346 36.4991 7.04534C36.4433 6.67723 36.5484 6.36019 36.8143 6.09424L37.1491 5.75944C37.294 5.61453 37.4585 5.51598 37.6426 5.46379C37.8266 5.41163 38.0172 5.41163 38.2143 5.46379L47.148 7.76054L50.9067 4.03772C51.256 3.68843 51.6837 3.51379 52.1899 3.51379C52.696 3.51379 53.1238 3.68843 53.473 4.03772C53.8223 4.387 53.997 4.81237 53.997 5.31382C53.997 5.81527 53.8223 6.24064 53.473 6.58992L49.7361 10.3627L52.0328 19.204C52.085 19.4272 52.0808 19.6462 52.0203 19.8611C51.9598 20.076 51.8524 20.2606 51.698 20.4149L51.5448 20.5823C51.2455 20.8816 50.8875 20.9992 50.4709 20.935C50.0542 20.8709 49.7473 20.6548 49.5502 20.2866L46.098 13.9649L42.6361 17.4551L42.9078 19.4073C42.9339 19.5616 42.9209 19.7171 42.8687 19.8736C42.8165 20.0301 42.7346 20.1642 42.623 20.2758L42.4557 20.4432C42.223 20.6758 41.9382 20.7725 41.6013 20.7334C41.2643 20.6943 41.014 20.524 40.8502 20.2225L39.5785 17.9182Z" fill="#1C1B1F"/>
</g>
<mask id="mask1_956_489" style="mask-type:alpha" maskUnits="userSpaceOnUse" x="0" y="24" width="25" height="25">
<rect x="0.968689" y="24.528" width="24" height="24" fill="#D9D9D9"/>
</mask>
<g mask="url(#mask1_956_489)">
<path d="M7.07923 44.966C6.20988 44.966 5.46941 44.6696 4.85781 44.0768C4.24623 43.4841 3.92159 42.7805 3.88391 41.966C3.19258 41.9283 2.62753 41.6618 2.18878 41.1665C1.75 40.6712 1.53061 40.0544 1.53061 39.3159V30.7399C1.53061 30.0015 1.78768 29.3752 2.30183 28.8611C2.81597 28.3469 3.44224 28.0898 4.18066 28.0898H15.5306C16.2408 28.0898 16.7917 28.387 17.1834 28.9812C17.575 29.5754 17.9075 30.1616 18.1807 30.7399V31.8779H20.3698C20.5835 31.8779 20.7807 31.923 20.9611 32.0132C21.1415 32.1034 21.2959 32.2341 21.4241 32.4051L24.1361 36.0127C24.2216 36.1243 24.2881 36.2465 24.3356 36.3792C24.383 36.5119 24.4068 36.6557 24.4068 36.8105V40.641C24.4068 41.0091 24.278 41.322 24.0203 41.5796C23.7627 41.8372 23.4499 41.966 23.0817 41.966H22.1665C22.1288 42.7805 21.8047 43.4841 21.1943 44.0768C20.5838 44.6696 19.8425 44.966 18.9704 44.966C18.0982 44.966 17.3564 44.6696 16.7448 44.0768C16.1332 43.4841 15.8085 42.7805 15.7709 41.966H10.2654C10.2278 42.7805 9.90463 43.4841 9.29608 44.0768C8.68753 44.6696 7.94858 44.966 7.07923 44.966ZM7.08173 42.7399C7.36507 42.7399 7.60257 42.6441 7.79423 42.4524C7.9859 42.2607 8.08173 42.0232 8.08173 41.7399C8.08173 41.4566 7.9859 41.2191 7.79423 41.0274C7.60257 40.8357 7.36507 40.7399 7.08173 40.7399C6.7984 40.7399 6.5609 40.8357 6.36923 41.0274C6.17757 41.2191 6.08173 41.4566 6.08173 41.7399C6.08173 42.0232 6.17757 42.2607 6.36923 42.4524C6.5609 42.6441 6.7984 42.7399 7.08173 42.7399ZM18.9687 42.7399C19.252 42.7399 19.4895 42.6441 19.6812 42.4524C19.8729 42.2607 19.9687 42.0232 19.9687 41.7399C19.9687 41.4566 19.8729 41.2191 19.6812 41.0274C19.4895 40.8357 19.252 40.7399 18.9687 40.7399C18.6854 40.7399 18.4479 40.8357 18.2562 41.0274C18.0645 41.2191 17.9687 41.4566 17.9687 41.7399C17.9687 42.0232 18.0645 42.2607 18.2562 42.4524C18.4479 42.6441 18.6854 42.7399 18.9687 42.7399ZM18.1807 37.5279H21.9643L19.7143 34.5279H18.1807V37.5279Z" fill="#1C1B1F"/>
</g>
<mask id="mask2_956_489" style="mask-type:alpha" maskUnits="userSpaceOnUse" x="32" y="24" width="25" height="25">
<rect x="32.9687" y="24.528" width="24" height="24" fill="#D9D9D9"/>
</mask>
<g mask="url(#mask2_956_489)">
<path d="M40.5633 46.3649C40.1546 46.2816 39.8903 46.0427 39.7703 45.6481C39.6504 45.2535 39.7354 44.9113 40.0252 44.6214L40.5111 44.1356C39.3865 44.0791 38.4348 43.6356 37.6562 42.8051C36.8776 41.9747 36.4883 40.9783 36.4883 39.816V30.5279C36.4883 29.5241 36.7433 28.7238 37.2535 28.1272C37.7636 27.5306 38.4219 27.0806 39.2285 26.7774C40.035 26.4741 40.9433 26.2767 41.9535 26.185C42.9636 26.0933 43.9687 26.0475 44.9687 26.0475C46.0687 26.0475 47.1298 26.0933 48.1519 26.185C49.174 26.2767 50.0781 26.4741 50.8644 26.7774C51.6506 27.0806 52.278 27.5306 52.7464 28.1272C53.2149 28.7238 53.4492 29.5241 53.4492 30.5279V39.816C53.4492 40.9783 53.0598 41.9747 52.2812 42.8051C51.5026 43.6356 50.551 44.0791 49.4263 44.1356L49.9122 44.6214C50.202 44.9113 50.287 45.2535 50.1671 45.6481C50.0471 46.0427 49.7828 46.2816 49.3741 46.3649C49.2046 46.3983 49.0397 46.3912 48.8796 46.3437C48.7194 46.2963 48.5755 46.2091 48.4477 46.0821L46.5306 44.1779H43.4068L41.4898 46.0821C41.362 46.209 41.218 46.2962 41.0579 46.3437C40.8977 46.3912 40.7328 46.3983 40.5633 46.3649ZM39.1383 34.6975H43.9687V31.6975H39.1383V34.6975ZM45.9687 34.6975H50.7991V31.6975H45.9687V34.6975ZM41.5535 40.6127C41.9868 40.6127 42.3451 40.471 42.6285 40.1877C42.9118 39.9044 43.0535 39.546 43.0535 39.1127C43.0535 38.6794 42.9118 38.321 42.6285 38.0377C42.3451 37.7544 41.9868 37.6127 41.5535 37.6127C41.1201 37.6127 40.7618 37.7544 40.4785 38.0377C40.1951 38.321 40.0535 38.6794 40.0535 39.1127C40.0535 39.546 40.1951 39.9044 40.4785 40.1877C40.7618 40.471 41.1201 40.6127 41.5535 40.6127ZM48.3839 40.6127C48.8173 40.6127 49.1756 40.471 49.4589 40.1877C49.7423 39.9044 49.8839 39.546 49.8839 39.1127C49.8839 38.6794 49.7423 38.321 49.4589 38.0377C49.1756 37.7544 48.8173 37.6127 48.3839 37.6127C47.9506 37.6127 47.5923 37.7544 47.3089 38.0377C47.0256 38.321 46.8839 38.6794 46.8839 39.1127C46.8839 39.546 47.0256 39.9044 47.3089 40.1877C47.5923 40.471 47.9506 40.6127 48.3839 40.6127Z" fill="#1C1B1F"/>
</g>
<mask id="mask3_956_489" style="mask-type:alpha" maskUnits="userSpaceOnUse" x="64" y="24" width="25" height="25">
<rect x="64.9687" y="24.528" width="24" height="24" fill="#D9D9D9"/>
</mask>
<g mask="url(#mask3_956_489)">
<path d="M68.3817 43.4007L66.7784 37.6051C66.6719 37.1979 66.6786 36.795 66.7985 36.3964C66.9185 35.9979 67.1803 35.725 67.5839 35.5779L68.4882 35.2551V30.5279C68.4882 29.8555 68.7312 29.281 69.217 28.8045C69.7029 28.3281 70.2868 28.0898 70.9687 28.0898H73.4882V26.4149C73.4882 26.0468 73.617 25.7339 73.8746 25.4763C74.1322 25.2187 74.4451 25.0898 74.8132 25.0898H79.1241C79.4922 25.0898 79.8051 25.2187 80.0627 25.4763C80.3203 25.7339 80.4491 26.0468 80.4491 26.4149V28.0898H82.9687C83.6506 28.0898 84.2344 28.3281 84.7203 28.8045C85.2062 29.281 85.4491 29.8555 85.4491 30.5279V35.2551L86.3535 35.5779C86.7411 35.7207 87.0013 35.9824 87.1339 36.3632C87.2665 36.7441 87.2749 37.158 87.1589 37.6051L85.5557 43.4007C84.8709 43.4007 84.233 43.3089 83.642 43.1252C83.0511 42.9415 82.5154 42.7018 82.035 42.4062C81.8734 42.3156 81.7064 42.2435 81.5339 42.1899C81.3614 42.1363 81.1824 42.1142 80.9969 42.1236C80.8114 42.133 80.6277 42.1645 80.4458 42.2181C80.264 42.2718 80.0922 42.3486 79.9306 42.4486C79.5067 42.7348 79.0458 42.9651 78.548 43.1393C78.0502 43.3136 77.5237 43.4007 76.9687 43.4007C76.4136 43.4007 75.8872 43.3136 75.3893 43.1393C74.8915 42.9651 74.4306 42.7348 74.0067 42.4486C73.8451 42.3486 73.6734 42.2718 73.4915 42.2181C73.3096 42.1645 73.1259 42.133 72.9404 42.1236C72.7549 42.1142 72.5759 42.1363 72.4034 42.1899C72.231 42.2435 72.064 42.3156 71.9024 42.4062C71.4219 42.7018 70.8862 42.9415 70.2953 43.1252C69.7043 43.3089 69.0665 43.4007 68.3817 43.4007ZM68.2937 47.966C67.9256 47.966 67.6127 47.8372 67.3551 47.5796C67.0975 47.322 66.9687 47.0091 66.9687 46.641C66.9687 46.2729 67.0975 45.96 67.3551 45.7024C67.6127 45.4448 67.9256 45.3159 68.2937 45.3159H68.9687C69.5332 45.3159 70.0917 45.2457 70.6442 45.1051C71.1968 44.9645 71.7303 44.7536 72.2448 44.4725C72.3469 44.4131 72.4616 44.3685 72.5888 44.3388C72.716 44.3091 72.8426 44.2942 72.9687 44.2942C73.0948 44.2942 73.2214 44.3091 73.3486 44.3388C73.4757 44.3685 73.5904 44.4131 73.6926 44.4725C74.2071 44.7464 74.7406 44.9471 75.2931 45.0746C75.8457 45.2022 76.4042 45.2659 76.9687 45.2659C77.5332 45.2659 78.0917 45.2022 78.6442 45.0746C79.1968 44.9471 79.7303 44.7464 80.2448 44.4725C80.3469 44.4131 80.4616 44.3685 80.5888 44.3388C80.716 44.3091 80.8426 44.2942 80.9687 44.2942C81.0948 44.2942 81.2214 44.3091 81.3486 44.3388C81.4757 44.3685 81.5904 44.4131 81.6926 44.4725C82.2071 44.7536 82.7406 44.9645 83.2931 45.1051C83.8457 45.2457 84.4042 45.3159 84.9687 45.3159H85.6437C86.0118 45.3159 86.3246 45.4448 86.5823 45.7024C86.8399 45.96 86.9687 46.2729 86.9687 46.641C86.9687 47.0091 86.8399 47.322 86.5823 47.5796C86.3246 47.8372 86.0118 47.966 85.6437 47.966H84.9687C84.2687 47.966 83.5853 47.8827 82.9187 47.716C82.252 47.5493 81.602 47.2993 80.9687 46.966C80.3353 47.2993 79.6812 47.5493 79.0062 47.716C78.3312 47.8827 77.652 47.966 76.9687 47.966C76.2853 47.966 75.6062 47.8827 74.9312 47.716C74.2562 47.5493 73.602 47.2993 72.9687 46.966C72.3353 47.2993 71.6853 47.5493 71.0187 47.716C70.352 47.8827 69.6687 47.966 68.9687 47.966H68.2937ZM71.1382 34.4497L76.1459 32.841C76.4118 32.7555 76.6861 32.7127 76.9687 32.7127C77.2513 32.7127 77.5256 32.7555 77.7915 32.841L82.7991 34.4497V30.7399H71.1382V34.4497Z" fill="#1C1B1F"/>
</g>
</svg>
