<svg xmlns="http://www.w3.org/2000/svg" fill="none" viewBox="0 0 14 14" width="40" height="40" role="img" class="styles_image__7oF58">
<path class="ic-a-free_alongside_ship_svg__ic_a_free_alongside_ship" fill="#000" d="m1.551 3.13.508-.514c.18-.181.357-.366.542-.54a.273.273 0 0 1 .166-.07c.497-.006.993-.016 1.49.002.245.008.489.07.734.11l3.271.544 2.16.361c.103.018.154.076.154.182v.978c0 .14-.064.202-.202.202h-.815c0 .29-.005.574.005.856.002.053.055.112.098.156.055.055.124.094.185.144.25.21.292.563.098.821a.591.591 0 0 1-.816.129 7.227 7.227 0 0 1-.34-.254c-.093-.072-.107-.17-.044-.251.062-.078.153-.087.245-.02.107.076.209.158.316.234.131.092.28.072.368-.046.083-.113.072-.277-.06-.355-.34-.204-.437-.505-.402-.879.016-.171.002-.346.002-.527H4.452v6.464h.302c.14.002.201.063.203.202.003.095.003.191.004.287 0 .003.003.005.011.022h.979c.132 0 .196.063.199.195.002.098 0 .198 0 .306h1.008c-.012-.036-.023-.072-.037-.105l-.765-1.96c-.072-.182-.042-.25.14-.313.08-.028.16-.062.24-.084.076-.02.097-.06.096-.136-.003-.638-.002-1.277-.002-1.915 0-.198.049-.246.242-.246h4.62c.196 0 .247.05.247.242 0 .635.002 1.27-.003 1.905 0 .083.024.12.103.14.085.023.167.058.25.088.163.059.196.137.126.295l-.872 1.96c-.019.04-.035.083-.058.138h.702c.04 0 .079-.002.117.004.086.013.15.088.144.17a.165.165 0 0 1-.141.163c-.037.008-.078.004-.118.004H6.15c0 .146-.006.29.002.433.004.104-.022.187-.108.247h-.128c-.088-.06-.111-.142-.109-.246.006-.28.002-.56.002-.84v-.106h-.141c-1.29 0-2.58 0-3.868.002-.104 0-.187-.02-.246-.108v-.128c.057-.084.136-.115.235-.108.09.006.181.002.274.002v-.315c.003-.132.064-.194.197-.196h.307V4.384c-.263 0-.521-.003-.779.001-.1.003-.18-.023-.235-.108V3.128l-.002.002Zm5.162 6.645.027.081c.252.647.505 1.292.755 1.94.027.07.064.085.133.085 1.129-.003 2.256-.003 3.384 0 .078 0 .11-.028.14-.094.268-.61.54-1.218.81-1.825l.086-.195c-.022-.01-.035-.016-.048-.02-.85-.3-1.702-.601-2.554-.898a.229.229 0 0 0-.141.008c-.434.152-.867.307-1.302.46-.426.153-.853.304-1.29.458ZM1.896 4.038h8.334v-.667H1.896v.667Zm5.28 5.198c.015 0 .026.003.036 0 .65-.23 1.3-.46 1.948-.696.026-.01.052-.062.052-.094.004-.213.002-.425.002-.637v-.35H7.176v1.779-.002Zm4.414.003V7.46H9.554c0 .338 0 .668.003.997 0 .03.034.075.063.086.125.051.252.093.379.138l1.59.559.001-.001ZM3 6.057l1.1 1.101V4.833L3 6.057Zm1.096 4.355V8.074L2.989 9.306l1.107 1.107Zm-1.18-1.536L4.01 7.658 2.915 6.555v2.323-.002ZM4.45 2.375v.644h3.794l.001-.013-3.795-.633v.002ZM2.92 4.39v1.246L4.038 4.39h-1.12Zm1.071 6.46L2.92 9.781v1.07h1.07Zm-.104-8.503H2.92v.675c.109 0 .211.003.313 0a.11.11 0 0 0 .073-.03c.19-.21.38-.42.58-.644v-.001Zm-1.48 9.013H4.61v-.158H2.406v.158Zm.161-8.74-.4.397h.4v-.396Zm1.531 0-.356.397h.356v-.396Z"></path>
<path class="ic-a-free_alongside_ship_svg__ic_a_free_alongside_ship" fill="rgb(0, 175, 239)" d="M1.551 11.602c.06.09.143.108.246.108 1.29-.002 2.58-.002 3.868-.002h.142v.107c0 .28.004.56-.002.839-.003.104.02.187.109.246H1.55v-1.299l.001.001Z"></path>
<path class="ic-a-free_alongside_ship_svg__ic_a_free_alongside_ship" fill="#fff" d="M6.713 9.775c.437-.156.864-.306 1.29-.457.435-.155.868-.31 1.302-.461a.237.237 0 0 1 .141-.008c.852.297 1.703.597 2.554.898l.048.02-.086.195c-.27.608-.542 1.216-.81 1.825-.03.066-.062.095-.14.094a658.08 658.08 0 0 0-3.384 0c-.07 0-.106-.015-.133-.085-.25-.648-.503-1.293-.755-1.94-.009-.023-.016-.046-.027-.081Z"></path>
<path class="ic-a-free_alongside_ship_svg__ic_a_free_alongside_ship" fill="rgb(0, 175, 239)" d="M1.895 4.038v-.667h8.334v.667H1.895Z"></path>
<path class="ic-a-free_alongside_ship_svg__ic_a_free_alongside_ship" fill="#fff" d="M7.175 9.236V7.458h2.038v.35c0 .212.002.424-.002.637 0 .032-.027.084-.053.094-.647.234-1.297.465-1.948.696-.009.004-.02 0-.035 0v.001Zm.335-.934v.48c0 .126.065.201.168.202.104 0 .172-.075.172-.2v-.957c0-.125-.066-.202-.17-.203-.103 0-.169.074-.17.2v.479-.001Zm1.192-.163V7.81c-.006-.115-.075-.19-.175-.187-.096.002-.164.074-.165.184-.002.216-.002.433 0 .65 0 .114.073.188.173.186.095-.002.163-.074.166-.184.002-.107 0-.213 0-.32h.001Zm2.888 1.1L10 8.68c-.127-.044-.254-.087-.378-.138-.03-.011-.064-.056-.064-.086-.005-.33-.003-.66-.003-.997h2.037v1.779h-.002Zm-.673-.935v.49c.001.116.07.19.17.19s.169-.076.17-.193c.001-.327.002-.653 0-.979 0-.116-.072-.19-.172-.19-.1 0-.166.075-.168.192-.002.164 0 .327 0 .49Zm-.51-.167c0-.11.002-.22 0-.33-.004-.113-.077-.188-.177-.184-.097.003-.163.075-.164.186-.002.215-.002.433 0 .648 0 .11.067.183.164.185.1.003.172-.072.175-.186.003-.107 0-.212 0-.319h.001Z"></path>
<path class="ic-a-free_alongside_ship_svg__ic_a_free_alongside_ship" fill="rgb(0, 175, 239)" d="m3 6.057 1.1-1.224v2.325A952.9 952.9 0 0 0 3 6.057Zm1.096 4.355L2.989 9.305l1.107-1.232v2.339Z"></path>
<path class="ic-a-free_alongside_ship_svg__ic_a_free_alongside_ship" fill="#fff" d="M2.917 8.877V6.553l1.095 1.102c-.344.385-.711.792-1.095 1.22Zm1.535-6.502c1.27.21 2.532.421 3.795.632l-.001.013H4.452v-.645ZM2.92 4.391h1.12L2.92 5.637V4.39Zm1.071 6.46H2.92V9.782l1.071 1.07Z"></path>
<path class="ic-a-free_alongside_ship_svg__ic_a_free_alongside_ship" fill="rgb(0, 175, 239)" d="M3.887 2.35c-.202.223-.39.434-.58.642a.11.11 0 0 1-.074.03c-.102.004-.204.002-.313.002v-.676h.967v.001Z"></path>
<path class="ic-a-free_alongside_ship_svg__ic_a_free_alongside_ship" fill="#fff" d="M2.407 11.36v-.157H4.61v.158H2.407Z"></path><path class="ic-a-free_alongside_ship_svg__ic_a_free_alongside_ship" fill="#FDDE01" d="M2.568 2.622v.396h-.4l.4-.396Zm1.532 0v.396h-.357c.12-.135.231-.257.356-.396Z"></path>
<path class="ic-a-free_alongside_ship_svg__ic_a_free_alongside_ship" fill="#fff" stroke="#000" stroke-width="0.15" d="M7.681 7.698h.001c.031 0 .052.01.065.027.008.01.015.023.02.04l.009.062v.957c0 .049-.013.08-.029.098a.074.074 0 0 1-.027.02l-.04.006c-.032 0-.052-.01-.065-.026a.113.113 0 0 1-.02-.039l-.009-.064v-.957c0-.05.014-.08.029-.098a.072.072 0 0 1 .026-.02l.04-.006Zm.849 0c.029 0 .05.01.066.025a.11.11 0 0 1 .021.035l.011.055v.643a.132.132 0 0 1-.03.085.086.086 0 0 1-.064.027l-.039-.007a.08.08 0 0 1-.028-.018.101.101 0 0 1-.02-.035l-.008-.052v-.649c0-.04.011-.066.026-.082a.08.08 0 0 1 .027-.02l.037-.007Zm2.462.117c0-.045.013-.074.028-.09a.083.083 0 0 1 .065-.027c.03 0 .053.01.068.026.008.009.015.02.02.035l.01.054v.978a.133.133 0 0 1-.029.09c-.014.016-.037.026-.067.026a.087.087 0 0 1-.066-.025c-.016-.017-.028-.045-.029-.088v-.979Zm-.76-.116c.03-.001.052.01.068.025.008.009.016.02.021.035l.01.051c.002.085 0 .168 0 .253v.392a.132.132 0 0 1-.032.088.084.084 0 0 1-.067.025l-.038-.008a.078.078 0 0 1-.026-.02.096.096 0 0 1-.019-.031l-.007-.051v-.649c0-.04.011-.066.026-.083a.08.08 0 0 1 .026-.02l.038-.007ZM7.423 1.175c.71 0 1.288.577 1.287 1.285l-.007.132a1.287 1.287 0 0 1-2.565-.138l.006-.13a1.287 1.287 0 0 1 1.279-1.149Zm.647.51a.178.178 0 0 0-.146.023l-.037.03-.244.245-.22.22-.456-.46-.035-.029a.184.184 0 0 0-.09-.034l-.054.004h-.002a.18.18 0 0 0-.115.08l-.02.045a.176.176 0 0 0 .019.151L6.7 2l.463.462-.46.462a.215.215 0 0 0-.053.08.171.171 0 0 0-.01.053l.007.054c.034.126.17.167.27.11l.042-.032v-.001c.156-.154.31-.31.465-.465.15.15.3.301.452.451v.001l.03.028a.186.186 0 0 0 .156.038l.052-.02h.001a.185.185 0 0 0 .091-.134l-.005-.06a.245.245 0 0 0-.022-.055l-.037-.049-.46-.462.46-.458a.199.199 0 0 0 .063-.126l-.004-.054a.177.177 0 0 0-.084-.118l-.047-.02Z"></path>
<path class="ic-a-free_alongside_ship_svg__ic_a_free_alongside_ship" fill="rgb(0, 175, 239)" d="M7.575 2.46c.175.175.345.343.513.514a.153.153 0 0 1 .04.072c.012.043-.013.087-.05.109a.109.109 0 0 1-.125-.01L7.93 3.12l-.476-.476c-.01-.01-.016-.018-.025-.03l-.03.028-.492.49c-.063.065-.163.04-.187-.043-.011-.046.004-.082.036-.114.163-.161.324-.324.487-.486l.027-.028a.645.645 0 0 0-.027-.028l-.489-.489a.11.11 0 0 1-.032-.115.104.104 0 0 1 .08-.074c.045-.01.08.008.111.04.162.16.323.322.483.483a.64.64 0 0 0 .028.027c.01-.01.02-.017.028-.027l.487-.488c.032-.032.068-.046.112-.034.042.012.068.04.078.081.009.044-.007.08-.039.11l-.477.477c-.011.011-.023.02-.038.033l.001.001Z"></path>
</svg>