<svg xmlns="http://www.w3.org/2000/svg" fill="none" viewBox="0 0 14 14" width="50px" height="50px" role="img" class="styles_image__7oF58">
<path class="ic-a-ship_amber_svg__ic_a_ship_amber" fill="rgb(0,0,0)" d="M5.258 6.314h.774V4.64c0-.196.062-.257.263-.257H7.58V2.702c0-.19.063-.253.254-.253h2.588c.19 0 .254.064.254.254v1.682h.791c.348 0 .37.023.37.368v1.569h.92c.217 0 .296.13.199.327-.438.88-.879 1.758-1.317 2.638-.02.038-.035.078-.06.132h1.015c.077 0 .153-.004.23.002.105.01.182.094.176.194-.006.107-.067.17-.171.188-.036.006-.072.002-.108.002H1.239c-.15-.002-.24-.076-.237-.196.003-.118.089-.189.233-.19h.485l-.197-.793-.502-2.016c-.048-.188.029-.287.223-.287h.92V4.649c0-.2.061-.261.258-.261h.322V3.93c0-.275.037-.314.31-.318.02 0 .04 0 .076-.003 0-.073.005-.144-.003-.214-.003-.03-.031-.062-.058-.078-.064-.04-.137-.069-.204-.106-.112-.06-.15-.162-.102-.26.05-.102.15-.135.267-.09l.101.042v-.226c.003-.14.078-.228.196-.227.117.002.19.089.19.233v.928h.529c.18 0 .245.066.246.25v.524h.58c.373 0 .388.016.388.387v1.543l-.002-.002Zm7.226.4H1.443c.227.906.451 1.801.675 2.702h.106l8.803.001c.078 0 .122-.02.159-.093.414-.836.833-1.671 1.252-2.508.015-.031.029-.064.046-.104v.001ZM7.976 2.838v1.534h2.308V2.84H7.976ZM6.423 6.311h2.312V4.778H6.423v1.533Zm5.024-1.535h-2.31V6.31h2.31V4.776Zm-6.58 1.348H3.575c-.184 0-.251-.066-.251-.246V5.2c0-.171.069-.238.244-.238h1.297v-.185H2.559V6.31h2.308v-.187Zm0-.767H3.721v.372h1.146v-.372ZM3.141 3.996v.377h.754v-.377h-.754Zm-1.822 6.006c.212 0 .448.108.674.25.22.138.46.167.71.109.104-.024.207-.07.298-.126.518-.319 1.03-.318 1.548.002a.92.92 0 0 0 1.038-.004c.379-.24.777-.3 1.202-.161.114.037.22.097.325.16.354.212.71.22 1.06-.002a1.35 1.35 0 0 1 1.133-.177c.145.041.281.119.413.194.34.191.678.202 1.008-.002.361-.226.744-.31 1.154-.192.15.042.289.122.425.198.148.083.3.135.47.139.14.002.226.083.222.199-.004.117-.092.187-.235.187-.275 0-.518-.1-.746-.247a.908.908 0 0 0-.732-.112 1.22 1.22 0 0 0-.307.136c-.5.3-.998.307-1.496.003-.371-.227-.734-.223-1.103.004-.484.295-.976.3-1.462.004-.382-.235-.753-.23-1.135.005-.471.288-.957.291-1.429.003-.396-.243-.772-.236-1.169.005-.457.28-.932.276-1.398.004-.187-.11-.376-.195-.6-.195A.187.187 0 0 1 1 10.177c.012-.118.1-.178.318-.173v-.002Z"></path>
<path class="ic-a-ship_amber_svg__ic_a_ship_amber" fill="rgb(0,0,0)" d="M5.044 11.545c-.274.01-.529-.092-.768-.244a.906.906 0 0 0-.73-.113 1.272 1.272 0 0 0-.329.146c-.485.285-.968.293-1.452.004a1.086 1.086 0 0 0-.568-.18.189.189 0 0 1-.196-.201c.005-.11.088-.184.214-.185.26-.002.5.077.717.218.177.114.368.174.582.17.22-.004.404-.096.584-.206.33-.199.685-.232 1.049-.13.141.04.274.114.402.188.346.198.693.209 1.03-.004.358-.225.737-.3 1.143-.186.145.041.28.118.414.193.343.194.686.204 1.018-.005.358-.225.736-.301 1.144-.19.123.033.244.088.35.155.39.247.771.244 1.158-.002a1.28 1.28 0 0 1 1.079-.15c.149.041.287.122.425.198.147.083.3.134.47.138.139.002.225.085.22.201-.006.118-.094.185-.238.185-.272 0-.512-.098-.736-.241a.912.912 0 0 0-.73-.119c-.112.026-.22.08-.319.138-.5.299-.998.305-1.496 0-.365-.224-.725-.224-1.092 0-.492.303-.99.305-1.483.002-.37-.227-.736-.23-1.102.003a1.319 1.319 0 0 1-.759.216l-.001.001Z"></path>
<path class="ic-a-ship_amber_svg__ic_a_ship_amber" fill="rgb(0, 141, 197)" d="M12.484 6.715c-.018.04-.03.072-.047.104-.418.835-.836 1.67-1.251 2.507-.037.074-.08.094-.159.094-2.935-.003-5.87-.001-8.803-.001h-.106l-.675-2.703h11.04v-.001Zm-9.559.767h.738c.15 0 .24-.075.239-.196-.002-.118-.089-.19-.233-.19H2.193c-.14 0-.228.078-.225.195.001.117.087.19.232.19h.725v.001Zm1.46 0h.084c.124-.005.206-.081.207-.19.001-.11-.08-.19-.202-.196-.049-.003-.096 0-.145 0-.144.002-.23.072-.23.191-.002.118.084.193.225.197h.06v-.002Z"></path>
<path class="ic-a-ship_amber_svg__ic_a_ship_amber" fill="rgb(255,255,255)" d="M7.975 2.84h2.307v1.535H7.975V2.84Zm.379.758c0 .129-.003.258 0 .386.003.124.083.205.192.205.11 0 .19-.082.193-.206.002-.25.002-.5 0-.75-.002-.125-.083-.205-.193-.205s-.189.08-.192.206c-.004.121 0 .241 0 .362v.002Zm.966.02c0-.12.002-.24 0-.362 0-.141-.079-.228-.196-.226-.114.002-.189.086-.19.22-.001.242-.003.485 0 .726 0 .132.082.217.195.214.114-.001.187-.086.19-.22.003-.118 0-.234 0-.351h.001Zm.58.003c0-.129.003-.258 0-.386-.003-.124-.082-.205-.192-.205s-.191.08-.192.205c-.003.25-.003.5 0 .75.001.124.083.205.192.205.11 0 .189-.082.193-.205.004-.12 0-.24 0-.362V3.62Z"></path>
<path class="ic-a-ship_amber_svg__ic_a_ship_amber" fill="rgb(0, 141, 197)" d="M6.421 6.314V4.78h2.312v1.533H6.421Zm.772-.773c0-.122.002-.242 0-.363-.003-.13-.085-.215-.198-.211-.11.004-.186.084-.187.21-.003.245-.003.492 0 .737 0 .13.084.215.197.211.11-.004.185-.086.188-.211.002-.125 0-.25 0-.375v.002Zm.58.005c0-.125.003-.25 0-.375-.004-.124-.083-.204-.192-.204-.11 0-.192.08-.193.204-.003.25-.003.5 0 .75.001.125.083.205.193.207.109 0 .19-.082.192-.205.004-.125 0-.25 0-.374v-.003Zm.194-.01v.375c.003.132.082.217.195.215.11-.001.189-.083.19-.207.003-.249.003-.5 0-.75-.001-.123-.084-.203-.195-.202-.11.001-.187.083-.19.207-.003.121 0 .241 0 .363Zm3.478-.758v1.534h-2.31V4.778h2.31Zm-1.543.764v-.363c-.005-.13-.083-.215-.196-.213-.11.002-.188.083-.189.208-.003.245-.003.492 0 .737 0 .13.083.215.196.214.11-.003.186-.084.19-.208.002-.126 0-.251 0-.375Zm.58.004c0-.125.003-.25 0-.375-.003-.124-.083-.204-.192-.204-.11 0-.19.08-.193.204-.002.25-.002.5 0 .75.002.125.083.205.193.205s.189-.081.193-.205c.003-.126 0-.25 0-.375Zm.194-.007v.375c.006.13.085.215.198.212.11-.002.188-.084.189-.21.003-.245.003-.491 0-.737-.001-.13-.085-.215-.198-.212-.11.003-.185.084-.189.21-.002.121 0 .241 0 .362Zm-5.81.587v.188H2.557V4.78h2.306v.184H3.567c-.176 0-.244.068-.244.239v.678c0 .18.067.244.25.245h1.293Z"></path>
<path class="ic-a-ship_amber_svg__ic_a_ship_amber" fill="rgb(255,255,255)" d="M4.865 5.361v.372H3.718v-.372h1.147ZM3.138 4h.754v.377h-.754V4Zm-.213 3.482H2.2c-.144 0-.23-.072-.232-.19-.001-.117.084-.195.225-.195H3.67c.144 0 .23.074.233.19 0 .12-.087.195-.24.197h-.736v-.002Zm1.458-.001h-.06c-.142-.003-.229-.08-.226-.196.001-.118.087-.19.23-.192h.146c.122.007.203.086.202.195-.002.11-.084.185-.207.192h-.085v.001Z"></path>
<path class="ic-a-ship_amber_svg__ic_a_ship_amber" fill="rgb(0, 141, 197)" d="M8.354 3.598c0-.122-.003-.242 0-.363.003-.124.081-.205.192-.206.11 0 .191.08.193.205.002.249.002.5 0 .75-.002.124-.083.206-.193.206s-.19-.08-.192-.205c-.004-.129 0-.258 0-.386v-.001Zm.968.021v.35c-.003.134-.078.218-.19.22-.114.002-.194-.082-.195-.213a33.23 33.23 0 0 1 0-.725c0-.135.076-.218.19-.22.117-.002.193.085.196.225v.363h-.001Zm.58.002c0 .122.003.242 0 .363-.004.124-.083.205-.192.205-.11 0-.192-.082-.193-.205-.003-.25-.003-.5 0-.75.001-.124.082-.205.193-.205.109 0 .188.08.192.205.004.129 0 .258 0 .386v.001Z"></path>
<path class="ic-a-ship_amber_svg__ic_a_ship_amber" fill="rgb(255,255,255)" d="M7.193 5.54c0 .126.002.251 0 .375-.003.126-.078.207-.188.211-.113.004-.196-.081-.197-.21a34.326 34.326 0 0 1 0-.738c0-.125.077-.207.187-.21.113-.004.195.082.198.211.002.122 0 .242 0 .363v-.001Zm.58.006c0 .125.003.25 0 .375-.004.124-.083.204-.192.204-.11 0-.19-.082-.193-.206-.003-.25-.003-.5 0-.75.001-.124.083-.205.193-.205.109 0 .188.08.192.205.004.125 0 .249 0 .374v.003Zm.194-.009c0-.122-.003-.242 0-.363.003-.124.08-.206.19-.207.11-.001.193.079.195.202.004.249.003.5 0 .75-.001.124-.08.206-.19.207-.113.002-.192-.083-.195-.215-.003-.125 0-.25 0-.374Zm1.935.005c0 .125.003.25 0 .375-.002.124-.08.205-.188.208-.114.003-.196-.083-.197-.214a34.326 34.326 0 0 1 0-.737c.001-.125.08-.206.189-.208.113-.003.19.081.196.213v.363Zm.58.004c0 .125.003.25 0 .375-.003.124-.083.204-.192.205-.11 0-.191-.08-.193-.204-.002-.25-.002-.5 0-.75.002-.125.082-.205.193-.205.11 0 .19.08.193.204.003.126 0 .25 0 .375Zm.194-.008c0-.121-.002-.241 0-.363.003-.125.08-.207.19-.21.113-.002.196.082.197.213.003.245.003.492 0 .737-.001.126-.08.207-.189.21-.113.003-.192-.082-.198-.212v-.375Z"></path>
</svg>