<svg xmlns="http://www.w3.org/2000/svg" fill="none" viewBox="0 0 14 14" width="40px" height="40px" role="img" class="styles_image__7oF58">
    <path class="ic-a-carriage_insurance_paid_To_svg__ic_a_carriage_insurance_paidTo" fill="rgb(0,0,0)" d="M1.27 6.125c0-1.56 0-3.12.002-4.683 0-.09.023-.2.078-.262.046-.055.156-.077.237-.077C3.1 1.099 4.616 1.1 6.13 1.1h4.33c.271 0 .348.078.348.353 0 1.77 0 3.54-.003 5.31 0 .116.031.165.146.194.434.107.87.108 1.309.057.033-.004.066-.01.1-.013.287-.029.372.046.37.338 0 .69 0 1.38-.007 2.07a3.594 3.594 0 0 1-.15 1.078c-.112.342-.316.627-.56.881-.383.399-.77.793-1.163 1.182a.38.38 0 0 1-.232.094 12.6 12.6 0 0 1-.94 0 .428.428 0 0 1-.264-.11c-.439-.442-.867-.895-1.304-1.34-.034-.034-.101-.049-.153-.049-1.481-.002-2.962-.002-4.443-.002h-1.92c-.241 0-.325-.083-.325-.325V6.123v.002Zm.508 4.508H7.76c-.192-.5-.204-1.012-.208-1.527-.004-.582-.003-1.164-.003-1.745 0-.323.08-.394.4-.357.024.002.049.008.073.01.504.058 1.001.051 1.488-.113a.641.641 0 0 1 .185-.026c.2-.003.398 0 .602 0V3.619H7.294v1.648c0 .054 0 .11-.012.161a.241.241 0 0 1-.344.164c-.052-.026-.098-.063-.145-.098l-.752-.565c-.273.203-.537.4-.801.6-.095.072-.19.12-.31.063-.127-.06-.146-.17-.146-.294V3.62H1.78v5.513h4.649c.043 0 .084-.002.126.002a.25.25 0 0 1 .003.498c-.041.004-.084.001-.126.001H1.778v.999Zm6.276-3.072c0-.007.005-.014 0 0 .01.765.01 1.53.037 2.295.014.413.176.781.465 1.083.377.392.757.78 1.139 1.167.025.025.074.037.11.039.223.004.444.004.666 0a.18.18 0 0 0 .12-.046c.369-.37.734-.744 1.098-1.12.333-.343.498-.759.51-1.233.016-.714.021-1.43.03-2.144 0-.024-.007-.047-.013-.076a4.773 4.773 0 0 0-.156.01 3.74 3.74 0 0 1-1.22-.089c-.086-.02-.17-.067-.254-.066-.419.01-.844-.061-1.254.09a.61.61 0 0 1-.172.032l-1.106.059v-.001ZM5.29 4.86l.542-.405c.17-.126.243-.126.415.003.174.129.347.259.535.401V1.613H5.29v3.248ZM1.777 2.097h2.996V1.61H1.777v.486Zm8.522-.488H7.303v.49h2.996v-.49ZM1.779 3.1h2.997v-.484H1.778V3.1Zm8.52-.485H7.303v.49h2.996v-.49Z"></path>
    <path class="ic-a-carriage_insurance_paid_To_svg__ic_a_carriage_insurance_paidTo" fill="rgb(0,0,0)" d="M11.061 3.857a.75.75 0 0 1 1.503.004.756.756 0 0 1-.761.754.752.752 0 0 1-.742-.758Zm.504.008c.001.138.11.248.248.248a.25.25 0 1 0-.005-.501.247.247 0 0 0-.242.253h-.001Zm-7.287 7.529c.413 0 .75.333.755.748a.751.751 0 1 1-1.503.004.75.75 0 0 1 .749-.752h-.001Zm-.245.756c.001.138.11.248.247.248a.25.25 0 1 0-.005-.501.248.248 0 0 0-.241.253h-.001Z"></path>
    <path class="ic-a-carriage_insurance_paid_To_svg__ic_a_carriage_insurance_paidTo" fill="rgb(0, 141, 197)" d="M1.778 10.633v-.996h4.654c.042 0 .083.003.126-.001a.25.25 0 0 0-.003-.499c-.041-.004-.083-.001-.126-.001H1.78V3.623h3.004V5.3c0 .124.02.234.145.294.12.058.216.007.31-.064.264-.2.53-.396.801-.6l.753.566c.047.035.093.072.145.098.143.07.308-.01.344-.164a.708.708 0 0 0 .012-.162V3.621h3.003v3.257c-.202 0-.402-.002-.602 0a.564.564 0 0 0-.185.026c-.487.164-.984.17-1.488.113-.024-.003-.049-.008-.074-.01-.318-.038-.4.033-.4.357 0 .581 0 1.163.004 1.745.004.514.016 1.027.208 1.527H1.778v-.003Z"></path>
    <path class="ic-a-carriage_insurance_paid_To_svg__ic_a_carriage_insurance_paidTo" fill="rgb(255,255,255)" d="M8.054 7.56c.382-.019.745-.038 1.106-.058a.573.573 0 0 0 .172-.032c.41-.152.835-.08 1.254-.09.084-.001.168.045.253.066a3.74 3.74 0 0 0 1.221.089c.05-.005.1-.006.156-.01.006.029.014.052.014.075-.01.715-.015 1.43-.032 2.145a1.767 1.767 0 0 1-.509 1.233c-.364.375-.73.749-1.097 1.12a.195.195 0 0 1-.12.045c-.223.004-.444.004-.666 0-.038 0-.086-.012-.11-.038-.383-.388-.763-.775-1.14-1.168a1.616 1.616 0 0 1-.465-1.082c-.026-.766-.026-1.53-.037-2.296 0-.007.005-.015 0 0v.002Zm1.852 1.675c-.036-.046-.054-.076-.077-.099a.626.626 0 1 0-.886.887c.255.261.514.517.773.772.128.127.262.134.386.01.448-.444.896-.89 1.338-1.34a.58.58 0 0 0 .14-.595.623.623 0 0 0-1.036-.276c-.211.201-.412.413-.638.64ZM5.29 4.861V1.614h1.492V4.86l-.535-.4c-.172-.13-.245-.13-.415-.004l-.542.405Z"></path>
    <path class="ic-a-carriage_insurance_paid_To_svg__ic_a_carriage_insurance_paidTo" fill="rgb(0, 141, 197)" d="M1.777 2.097V1.61h2.996v.486H1.777Zm8.522-.487v.49H7.303v-.49h2.996Z"></path>
    <path class="ic-a-carriage_insurance_paid_To_svg__ic_a_carriage_insurance_paidTo" fill="rgb(255,255,255)" d="M1.778 3.1v-.485h2.998V3.1H1.778Zm8.522-.487v.49H7.304v-.49H10.3Z"></path>
    <path class="ic-a-carriage_insurance_paid_To_svg__ic_a_carriage_insurance_paidTo" fill="rgb(0, 141, 197)" d="M11.565 3.865a.248.248 0 1 1 .495 0 .252.252 0 0 1-.249.248.248.248 0 0 1-.248-.248h.002ZM4.033 12.15a.248.248 0 1 1 .495 0 .252.252 0 0 1-.249.248.25.25 0 0 1-.248-.248h.002Z"></path>
    <path class="ic-a-carriage_insurance_paid_To_svg__ic_a_carriage_insurance_paidTo" fill="rgb(0,0,0)" d="M9.906 9.236c.224-.227.425-.44.638-.64a.622.622 0 0 1 1.036.276.58.58 0 0 1-.14.594c-.442.452-.89.898-1.338 1.341-.125.123-.258.117-.386-.01-.26-.257-.518-.513-.772-.773a.626.626 0 1 1 .885-.887c.025.024.041.052.077.099Zm.004 1.046c.037-.035.066-.058.092-.084l1.01-1.01c.018-.018.048-.034.05-.053.007-.06.022-.133-.005-.176-.018-.026-.108-.012-.163 0-.027.005-.05.043-.072.066-.235.234-.466.468-.701.7-.14.138-.273.136-.414 0-.075-.073-.146-.148-.221-.222-.06-.056-.128-.073-.19-.012s-.047.128.012.187l.603.605-.001-.001Z"></path>
    <path class="ic-a-carriage_insurance_paid_To_svg__ic_a_carriage_insurance_paidTo" fill="rgb(0, 141, 197)" d="m9.91 10.282-.604-.605c-.057-.06-.072-.126-.01-.188.061-.06.13-.045.188.012.076.073.148.148.222.222.141.137.275.138.413 0 .235-.232.467-.467.701-.7.024-.022.045-.06.073-.066.054-.011.145-.025.163.001.027.043.012.116.005.175-.003.02-.033.036-.05.054L10 10.197c-.027.026-.055.049-.092.083l.001.002Z"></path>
</svg>