<svg xmlns="http://www.w3.org/2000/svg" fill="none" viewBox="0 0 14 14" width="50px" height="50px" role="img" class="styles_image__7oF58">
<path class="ic-a-carriage_paid_to_svg__ic_a_carriage_paid_to" fill="rgb(255,255,255)" d="M1.03 9.787c.055.083.123.147.23.11.106-.038.125-.129.12-.229-.002-.04 0-.077 0-.116 0-.105.053-.159.158-.16h.394v2.425c-.149 0-.303.009-.455-.004-.084-.006-.098-.087-.098-.162v-1.143c.004-.097-.006-.19-.113-.232-.108-.043-.174.025-.238.094v-.583h.001Z"></path>
<path class="ic-a-carriage_paid_to_svg__ic_a_carriage_paid_to" fill="rgb(0, 141, 197)" d="M3.174 10.617v1.504c0 .148-.023.171-.167.171-.187.001-.374-.002-.56.001-.109.002-.153-.044-.153-.153.002-1.022 0-2.044 0-3.066 0-.11.048-.154.156-.151.186.004.373 0 .56 0 .134 0 .164.03.164.165v1.529Z"></path>
<path class="ic-a-carriage_paid_to_svg__ic_a_carriage_paid_to" fill="rgb(255,255,255)" d="M10.308 6.386a2.37 2.37 0 1 0 0-4.741 2.37 2.37 0 0 0 0 4.741Z"></path>
<path class="ic-a-carriage_paid_to_svg__ic_a_carriage_paid_to" fill="rgb(0,0,0)" d="M1.03 9.414c.162-.453.55-.37.904-.372.01-.048.018-.089.029-.129a.43.43 0 0 1 .4-.336c.244-.007.489-.007.734 0a.433.433 0 0 1 .41.339l.025.105a.463.463 0 0 0 .27-.233c.11-.205.216-.413.317-.622a.378.378 0 0 0 .023-.158c.002-.689 0-1.377.001-2.066 0-.286.107-.392.394-.392h3.581c-.035-.057-.06-.094-.082-.132-.55-.932-.556-1.878.005-2.793.568-.93 1.426-1.351 2.522-1.266.149.011.224.083.216.19-.01.111-.102.173-.253.16a2.146 2.146 0 0 0-1.105.167c-.84.375-1.333 1.02-1.416 1.94a2.303 2.303 0 0 0 1.76 2.46c1.282.309 2.68-.563 2.843-1.96.12-1.032-.395-1.967-1.332-2.41l-.042-.02c-.11-.059-.15-.145-.11-.236.041-.097.142-.138.254-.08.182.095.372.184.533.308.795.61 1.146 1.428 1.043 2.418-.103 1.005-.632 1.725-1.55 2.152-.078.036-.084.083-.084.153v5.32c0 .324-.11.433-.433.433h-7.39c-.095.246-.315.313-.582.295-.12-.007-.241 0-.362 0-.414 0-.508-.07-.625-.471-.096 0-.197-.006-.297 0-.296.023-.503-.093-.602-.382v-1.423c.064-.07.13-.137.238-.094.107.043.117.134.113.232v1.143c0 .075.014.155.098.162.153.013.306.004.455.004V9.395h-.394c-.105 0-.158.055-.158.16v.116c.006.1-.014.19-.12.228-.108.037-.175-.026-.23-.109v-.373l-.002-.003Zm3.474-3.507v1.799c.12.04.235.056.325.114.315.199.42.578.264.92-.048.104-.101.207-.161.327h.14c.662 0 1.322-.002 1.984 0 .31 0 .534.167.588.444.017.09.003.188.003.293.321-.03.579.08.672.405.087.303-.047.528-.332.654.084.365-.044.635-.348.725-.08.024-.169.025-.253.027-.173.004-.346 0-.513 0v.379H9.61V8.735c0-.047-.001-.094.005-.14.013-.082.063-.131.147-.14.088-.01.155.025.182.11a.57.57 0 0 1 .017.16v3.27h1v-5.36c-.332.02-.659.038-1 .06v.652c0 .182.004.366-.002.548-.005.164-.156.258-.268.163-.048-.04-.078-.125-.079-.19a26.88 26.88 0 0 1 0-1.144c.002-.107-.035-.149-.13-.177a2.183 2.183 0 0 1-.922-.525c-.15-.147-.31-.118-.488-.111v1.526c0 .12-.023.226-.141.284-.114.056-.21.01-.3-.062-.168-.132-.34-.26-.504-.396-.06-.05-.1-.046-.158.002a9.4 9.4 0 0 1-.506.393.386.386 0 0 1-.209.08c-.146.002-.227-.11-.227-.294-.002-.466 0-.933 0-1.4v-.138H4.503l.001.001Zm-.98 3.487v2.396c0 .187 0 .196.19.198.852.008 1.703.01 2.555.013.166 0 .255-.064.262-.185.007-.118-.081-.189-.248-.198-.03-.002-.062 0-.094 0h-.56c-.163 0-.24-.057-.241-.172-.002-.12.079-.178.247-.18h.07l1.68-.001c.042 0 .085 0 .127-.006.097-.015.154-.08.157-.175.005-.1-.05-.17-.15-.194-.038-.008-.078-.005-.117-.005H5.816c-.035 0-.07.002-.105-.003-.096-.016-.156-.073-.156-.173 0-.099.06-.157.157-.172.038-.005.077-.002.117-.002h1.89c.042 0 .085 0 .127-.008.104-.021.15-.089.14-.195-.012-.112-.098-.175-.248-.176l-1.89-.001a.657.657 0 0 1-.15-.014c-.087-.02-.13-.082-.126-.17.003-.088.05-.146.14-.16.045-.007.092-.007.139-.007.408 0 .816 0 1.224-.002.14 0 .224-.074.227-.184.004-.11-.089-.191-.227-.199-.032-.002-.062 0-.094 0-.665 0-1.33-.012-1.994.006-.357.01-.521-.294-.35-.568.063-.101.113-.213.152-.326.053-.15.002-.284-.11-.39-.079-.075-.12-.066-.17.03-.102.201-.207.4-.305.603-.143.298-.33.546-.683.622l.003-.002Zm-.351 1.223V9.09c0-.136-.03-.164-.164-.164-.187 0-.374.002-.56-.001-.108-.002-.156.042-.156.15v3.067c0 .108.045.155.153.153.187-.004.374 0 .56 0 .145 0 .167-.024.167-.172v-1.506Zm4.544-3.34V5.912H6.392v1.35c.019-.01.026-.01.032-.015l.405-.314c.19-.149.255-.148.45.003l.438.341Z"></path>
<path class="ic-a-carriage_paid_to_svg__ic_a_carriage_paid_to" fill="rgb(0,0,0)" d="m9.847 4.775.584-.653.994-1.115a.491.491 0 0 1 .075-.073c.072-.05.148-.047.214.01.067.06.076.135.035.213-.022.04-.055.075-.086.11-.5.563-1.003 1.126-1.505 1.69-.209.234-.41.233-.618-.003l-.634-.716c-.062-.07-.088-.148-.031-.233a.156.156 0 0 1 .192-.068.315.315 0 0 1 .119.09c.195.217.388.435.58.654.026.028.05.058.081.096v-.002Z"></path>
<path class="ic-a-carriage_paid_to_svg__ic_a_carriage_paid_to" fill="rgb(0, 141, 197)" d="M4.504 5.907h1.525v1.538c0 .183.081.295.227.294.07 0 .15-.038.209-.08.174-.125.34-.258.506-.393.058-.047.097-.052.158-.002.164.137.336.264.504.396.09.07.186.118.3.062.117-.057.141-.164.141-.284V5.912c.178-.007.338-.036.488.11.258.253.574.423.921.526.096.029.133.07.131.177-.008.38-.006.762 0 1.143a.285.285 0 0 0 .078.191c.112.095.263.001.269-.163.005-.182.002-.366.002-.548v-.653l1-.06v5.36h-1V8.727a.562.562 0 0 0-.018-.16c-.026-.085-.093-.121-.181-.11-.084.009-.134.058-.147.14-.007.046-.005.093-.005.14v3.259H6.873v-.378c.168 0 .341.003.514-.001.085-.002.174-.003.253-.027.304-.091.432-.36.348-.725.284-.127.419-.351.332-.654-.093-.325-.351-.434-.673-.405 0-.105.016-.203-.002-.293-.054-.277-.277-.443-.588-.444-.662-.002-1.322 0-1.983 0h-.142c.06-.12.114-.223.162-.328a.714.714 0 0 0-.264-.92c-.09-.057-.206-.073-.325-.113v-1.8h-.001Z"></path>
<path class="ic-a-carriage_paid_to_svg__ic_a_carriage_paid_to" fill="rgb(255,255,255)" d="M3.525 9.394c.352-.076.54-.323.683-.622.097-.203.202-.402.305-.602.05-.097.091-.106.17-.032.112.107.163.24.11.392-.04.112-.09.224-.153.325-.17.274-.007.577.35.568.665-.017 1.33-.006 1.995-.006h.094c.139.008.23.089.227.2-.004.11-.087.182-.227.183-.409.003-.816 0-1.225.002-.046 0-.093 0-.14.007-.088.015-.135.073-.138.16-.003.09.039.151.127.17.048.012.1.014.15.014h1.889c.15 0 .235.064.247.177.012.105-.035.173-.14.195-.04.009-.084.008-.127.008h-1.89c-.039 0-.078-.003-.116.003-.097.014-.157.072-.158.171 0 .1.06.158.157.173.034.006.07.003.105.003h1.586c.04 0 .08-.003.116.006.1.024.155.092.151.193-.004.095-.06.159-.157.175-.042.007-.085.006-.128.006h-1.75c-.167.003-.248.062-.247.181.002.115.079.17.242.172h.56c.032 0 .062-.001.094 0 .166.01.253.08.248.198-.007.12-.097.185-.263.185a452.92 452.92 0 0 1-2.554-.013c-.19-.002-.19-.011-.19-.197V9.392l-.003.002Zm4.193-2.117-.438-.341c-.195-.152-.26-.152-.45-.003l-.405.314c-.006.005-.014.007-.033.014v-1.35h1.326v1.366Z"></path></svg>