<svg xmlns="http://www.w3.org/2000/svg" fill="none" viewBox="0 0 14 14" width="50px" height="50px" role="img" class="styles_image__7oF58">
    <path class="ic-a-delivered_at_place_svg__ic_a_delivered_at_place" fill="rgb(0,0,0)" d="M12.813 12.445c-.085 0-.159.008-.229-.002-.144-.02-.23.028-.242.193H13v.382H1v-.375h.573v-.16c0-2.892 0-5.785-.002-8.678 0-.16.052-.249.198-.319a1179 1179 0 0 0 5.066-2.443.338.338 0 0 1 .33 0c1.625.818 3.25 1.632 4.879 2.443.137.07.191.156.191.312-.005 1.667-.002 3.334-.002 5v.142h-.387v-.142c0-1.618 0-3.237.002-4.855 0-.09-.027-.133-.108-.174-1.548-.773-3.094-1.548-4.641-2.326a.199.199 0 0 0-.2 0c-1.616.782-3.232 1.561-4.849 2.338-.069.033-.09.073-.09.147l.001 8.605c0 .032.003.062.006.1h.186v-2.71h.773V5.462h8.138v3.477h-.378V7.401H3.328v2.515h1.925v2.712h2.023c-.03-.123-.107-.184-.23-.184H6.62V10.7h.573V7.982h3.098v2.705h.196V9.148c.042-.002.078-.008.112-.008.489 0 .977.003 1.466-.002.09 0 .123.031.152.11.185.504.375 1.006.561 1.508.017.044.036.092.036.138.002.51.001 1.02.001 1.548l-.002.003ZM10.87 9.53v1.561H7.007v.954c.13.029.207.012.27-.13.131-.297.383-.446.707-.44.318.007.55.166.69.454.02.04.034.082.05.123h2.17c.118-.34.345-.554.707-.574.403-.022.663.195.813.59v-1.177h-1.089c-.191 0-.257-.064-.257-.251v-.667c0-.181.067-.246.25-.246h.68c-.084-.07-.027-.194-.163-.194h-.965l.001-.003Zm-.973 1.161V8.377H9.32v.954H8.157v-.958h-.57v2.32h2.31ZM2.546 12.63h2.31v-2.316h-.574v.956H3.116v-.957h-.57v2.319Zm8.128-6.78H3.323v.372h7.352V5.85ZM3.322 6.997h7.352v-.374H3.322v.374Zm7.634 5.638c-.01-.167-.1-.196-.242-.195-.609.008-1.218.004-1.827.004-.123 0-.2.064-.228.191h2.297Zm-2.984.002a.39.39 0 0 0 .383-.39.39.39 0 0 0-.386-.386.389.389 0 0 0-.388.395c.004.212.18.383.391.38Zm3.676 0a.39.39 0 0 0 .388-.383.39.39 0 0 0-.38-.393.39.39 0 0 0-.394.39.39.39 0 0 0 .386.387v-.001Zm.611-2.14c-.043-.116-.082-.226-.125-.333-.008-.02-.037-.047-.057-.047-.205-.004-.408-.003-.612-.003v.383h.794ZM8.556 8.372v.569h.372v-.57h-.372ZM3.89 10.885v-.568h-.373v.568h.373Z"></path>
    <path class="ic-a-delivered_at_place_svg__ic_a_delivered_at_place" fill="rgb(0,0,0)" d="M3.71 5.057V3.518h6.573v1.539H3.71ZM9.9 3.909H4.098v.762H9.9V3.91Z"></path>
    <path class="ic-a-delivered_at_place_svg__ic_a_delivered_at_place" fill="rgb(0, 141, 197)" d="M10.871 9.531h.965c.135 0 .08.126.164.194h-.68c-.184 0-.25.067-.25.246v.667c0 .188.065.251.257.251h1.088v1.177c-.15-.395-.41-.612-.812-.59-.362.02-.59.236-.707.574h-2.17c-.017-.041-.032-.083-.051-.123-.14-.288-.371-.446-.69-.453-.323-.007-.576.143-.706.439-.064.142-.14.16-.271.13v-.953h3.864V9.529l-.001.002Z"></path>
    <path class="ic-a-delivered_at_place_svg__ic_a_delivered_at_place" fill="rgb(255,255,255)" d="M9.897 10.692h-2.31V8.373h.57v.958H9.32v-.954h.577v2.315Zm-.954-.573v.182h.18v-.182h-.18Zm.573.005h-.184v.176h.184v-.176Z"></path>
    <path class="ic-a-delivered_at_place_svg__ic_a_delivered_at_place" fill="rgb(0, 141, 197)" d="M2.547 12.63v-2.314h.569v.956h1.167v-.956h.575v2.316H2.547v-.001Zm1.357-.386h.181v-.178h-.18v.178Zm.39-.182v.18h.18v-.18h-.18Zm6.381-6.212v.373H3.323V5.85h7.352ZM3.323 6.998v-.374h7.352v.374H3.323Z"></path>
    <path class="ic-a-delivered_at_place_svg__ic_a_delivered_at_place" fill="rgb(255,255,255)" d="M10.957 12.636H8.66c.03-.127.106-.191.229-.191.609 0 1.217.005 1.826-.004.143-.002.231.026.242.195h-.001Zm-2.985.002a.389.389 0 0 1-.39-.38.389.389 0 0 1 .387-.396.39.39 0 0 1 .386.386.39.39 0 0 1-.383.39Zm-.004-.582a.194.194 0 0 0-.193.193c0 .106.087.193.193.194a.195.195 0 0 0 .193-.192.196.196 0 0 0-.193-.194Zm3.68.582a.389.389 0 1 1 .009-.777.388.388 0 0 1-.01.775v.002Zm.194-.389a.193.193 0 1 0 0 .002v-.002Zm.417-1.751h-.794v-.383c.204 0 .407-.001.612.003.02 0 .049.027.057.047.043.107.081.217.125.333Z"></path>
    <path class="ic-a-delivered_at_place_svg__ic_a_delivered_at_place" fill="rgb(0, 141, 197)" d="M8.556 8.372h.372v.569h-.372v-.57Z"></path>
    <path class="ic-a-delivered_at_place_svg__ic_a_delivered_at_place" fill="rgb(255,255,255)" d="M3.89 10.885h-.373v-.568h.373v.568Z"></path>
    <path class="ic-a-delivered_at_place_svg__ic_a_delivered_at_place" fill="rgb(0, 141, 197)" d="M9.9 3.908v.762H4.098v-.762H9.9Z"></path>
    <path class="ic-a-delivered_at_place_svg__ic_a_delivered_at_place" fill="rgb(0,0,0)" d="M8.943 10.119h.18v.182h-.18v-.182Zm.573.005v.176h-.184v-.176h.184Zm-5.612 2.12v-.178h.181v.178h-.18Zm.39-.182h.18v.18h-.18v-.18Zm3.674-.004c.106 0 .193.088.193.194a.195.195 0 0 1-.193.193.195.195 0 0 1-.193-.194c0-.106.087-.193.193-.193Zm3.875.192a.195.195 0 0 1-.191.194.197.197 0 0 1-.195-.193c0-.106.086-.194.192-.194.106 0 .193.087.194.191v.001Z"></path>
    <path class="ic-a-delivered_at_place_svg__ic_a_delivered_at_place" fill="rgb(255,255,255)" d="M11.847 8.715c0-1.595 0-3.192.003-4.787 0-.09-.028-.134-.109-.175-1.547-.772-3.094-1.548-4.64-2.326a.199.199 0 0 0-.201 0C5.284 2.21 3.668 2.99 2.05 3.765c-.068.033-.09.073-.09.147.002 2.868.002 5.737.002 8.605 0 .032.002.063.005.1h.186v-2.71h.773V5.446h8.138V8.55l.782.165Zm-1.56-3.675H3.714V3.5h6.573v1.54Z"></path>
    <path class="ic-a-delivered_at_place_svg__ic_a_delivered_at_place" fill="rgb(255, 255, 255)" d="M10.68 8.926V7.39H3.322v2.515h1.924v2.713H7.27c-.03-.124-.106-.185-.23-.185h-.426v-1.744h.573V7.97h3.099v2.705h.195V9.136c.042-.002.078-.007.112-.007h.465v-.205h-.377v.002Z"></path>
    <path class="ic-a-delivered_at_place_svg__ic_a_delivered_at_place" fill="rgb(0, 141, 197)" d="M11.848 8.782v-.067l-.782-.165v.577h.742l.055-.001-.007-.202h-.008v-.142Z"></path>
</svg>