<svg xmlns="http://www.w3.org/2000/svg" fill="none" viewBox="0 0 14 14" width="60px" height="60px" role="img" class="styles_image__7oF58"><g clip-path="url(#ic-a-ddp_svg__a)">
<path class="ic-a-ddp_svg__ic_a_ddp" fill="rgb(255,255,255)" d="M9.982 4.401H3.126v5.43h6.856v-5.43Z"></path>
<path class="ic-a-ddp_svg__ic_a_ddp" fill="rgb(255,255,255)" d="m12.153 7.387-1.5-.145c-.907 0-1.642.584-1.642 1.305 0 .72.735 1.304 1.642 1.304h.584c.906 0 1.592.19 1.592-.531 0-.72.23-1.933-.676-1.933Z"></path><path class="ic-a-ddp_svg__ic_a_ddp" fill="#fff" d="M7.978 9.252c-.403 0-.806.002-1.208-.003a.275.275 0 0 1-.17-.057c-.087-.079-.045-.224.068-.262a.376.376 0 0 1 .114-.014h2.394c.024 0 .05 0 .073.002.094.013.157.082.157.168 0 .091-.067.161-.168.163-.175.004-.35.002-.525.003h-.735Zm-4.127-.72H2.812c-.133 0-.21-.063-.209-.167 0-.103.08-.168.211-.168h2.078c.159 0 .248.122.185.245-.04.075-.107.091-.186.091h-1.04Zm6.283-2.506c.036-.003.07-.005.104-.005.427 0 .853.002 1.28-.002.084 0 .115.028.132.105.072.303.15.604.224.905.007.027.01.054.016.087h-1.756v-1.09Zm1.086 4.687a.736.736 0 0 1-.736-.722.735.735 0 0 1 .731-.737c.4 0 .729.329.73.727 0 .398-.328.73-.726.732Zm-.006-1.075a.344.344 0 0 0-.347.346c0 .191.158.35.348.348.19 0 .347-.16.347-.35a.345.345 0 0 0-.348-.344Zm-5.198.347a.734.734 0 0 1-.739.729.734.734 0 0 1-.72-.737.734.734 0 0 1 .734-.723.732.732 0 0 1 .725.73Zm-.384-.004a.341.341 0 0 0-.347-.344.347.347 0 0 0-.347.347.354.354 0 0 0 .35.347.347.347 0 0 0 .346-.35h-.002Z"></path>
<path class="ic-a-ddp_svg__ic_a_ddp" fill="rgb(0, 141, 197)" d="M10.13 5.673v-.367c.032-.002.06-.007.087-.007.385 0 .769-.002 1.154 0 .231.001.386.15.387.373H10.13Z"></path>
<path class="ic-a-ddp_svg__ic_a_ddp" fill="rgb(255,255,255)" d="M12.655 8.55c-.337.025-.395-.034-.366-.367h.366v.366Z"></path>
<path class="ic-a-ddp_svg__ic_a_ddp" fill="rgb(0,0,0)" d="M11.214 9.638c.194 0 .348.153.348.345 0 .19-.158.349-.347.349a.352.352 0 0 1-.348-.348c0-.193.153-.346.347-.346Zm-5.582.343c0 .193-.153.35-.344.351a.356.356 0 0 1-.35-.347.348.348 0 0 1 .346-.347c.195 0 .347.15.347.345l.001-.002Z"></path>
<path class="ic-a-ddp_svg__ic_a_ddp" fill="rgb(0,0,0)" d="M13 9.853c-.05.095-.132.124-.236.12-.157-.004-.314 0-.478 0-.017.351-.146.638-.42.852a1.044 1.044 0 0 1-.694.223c-.443-.015-.986-.345-1.032-1.068H6.356c-.016.357-.154.651-.444.864a1.036 1.036 0 0 1-.69.203c-.416-.023-.959-.328-1.01-1.075h-.866c-.243 0-.383-.143-.385-.386v-.334h-.45c-.043 0-.085.002-.126-.005a.152.152 0 0 1-.139-.148c-.007-.087.037-.147.121-.173a.393.393 0 0 1 .105-.01h1.502c.024 0 .049 0 .073.003.093.015.153.088.15.173a.162.162 0 0 1-.165.157c-.203.004-.406.003-.61.003h-.119v.374c.026.004.053.01.08.01.272 0 .546 0 .819.003.06 0 .082-.023.106-.075.194-.412.52-.642.975-.643.46 0 .79.228.983.646.024.052.052.07.11.07h3.33c.023 0 .047-.004.082-.007V8.368c.008-.098.078-.17.166-.17.094-.001.167.07.168.176.002.378 0 .756.001 1.134 0 .024-.004.05.002.074.005.02.021.048.035.049.018.002.041-.016.058-.031.01-.008.01-.025.017-.038.195-.411.52-.641.976-.643.459 0 .789.23.982.647.026.053.052.073.11.07.114-.003.23 0 .352 0V8.89h-.18a.521.521 0 0 1-.529-.536c-.001-.11-.002-.217 0-.326.002-.13.062-.19.195-.192.157-.002.315 0 .487 0a.371.371 0 0 0-.166-.25c-.097-.057-.209-.122-.314-.124-.658-.011-1.317-.005-1.975-.005-.014 0-.027.004-.05.008 0 .06.003.12 0 .178-.004.101-.07.169-.163.17-.091.001-.162-.065-.171-.165-.004-.031-.001-.063-.001-.094V4.588h-6.49v2.967c0 .036 0 .07-.003.105-.009.094-.065.148-.157.154-.088.006-.146-.044-.17-.127-.01-.037-.007-.077-.007-.115v-2.92c0-.272.135-.407.407-.407h6.354c.268 0 .401.132.402.399v.314c.045.002.082.006.118.006.361 0 .722.008 1.082-.002.453-.011.849.302.77.916-.007.056-.067.105-.116.177.08.32.166.67.256 1.018.006.026.037.06.064.067.376.098.604.334.687.713.002.01.01.018.015.027v1.975-.002Zm-2.866-3.827v1.09h1.756c-.006-.033-.01-.06-.016-.087-.075-.301-.152-.602-.224-.905-.018-.077-.048-.106-.131-.105-.427.004-.854.002-1.281.002-.034 0-.069.003-.104.005Zm1.086 4.686a.736.736 0 0 0 .726-.732.733.733 0 0 0-.73-.727.733.733 0 0 0-.73.736c.005.4.336.726.735.723h-.001Zm-5.204-.728a.732.732 0 0 0-.725-.731.734.734 0 0 0-.734.723.734.734 0 0 0 .72.736.733.733 0 0 0 .74-.728Zm4.114-4.311h1.628c-.001-.224-.156-.371-.387-.373-.385-.002-.769 0-1.154 0-.027 0-.054.004-.087.007v.367-.001Zm2.525 2.875v-.366h-.366c-.03.333.03.391.366.366Z"></path>
<path class="ic-a-ddp_svg__ic_a_ddp" fill="rgb(0, 141, 197)" d="m6.385 7.868-.79-.87c-.076-.085-.095-.181-.015-.27.08-.086.17-.065.248.018.098.104.34.11.436.216.185.197.214.302.395.103l.918-1.006c.03-.033.059-.088.095-.096.071-.016.19-.036.213.002.036.06.016.167.007.252a1.16 1.16 0 0 1-.1.236c-.44.484-.848.809-1.289 1.293-.034.037-.071.07-.12.12l.002.002Z"></path>
<path class="ic-a-ddp_svg__ic_a_ddp" fill="rgb(0,0,0)" d="M6.422 6.577c.24-.238.456-.461.683-.672a.672.672 0 0 1 1.11.29.6.6 0 0 1-.15.624 119 119 0 0 1-1.433 1.409c-.134.13-.276.122-.414-.012-.277-.269-.554-.537-.827-.81a.648.648 0 0 1-.006-.936.684.684 0 0 1 .955.004c.026.024.044.055.082.103Zm.004 1.099c.04-.036.07-.06.099-.088l1.082-1.06c.019-.02.051-.037.054-.057.007-.062.023-.14-.006-.184-.019-.027-.116-.013-.174-.001-.03.005-.053.046-.078.07-.25.246-.499.492-.75.735-.15.145-.293.143-.444 0-.08-.077-.157-.156-.237-.233-.063-.06-.137-.076-.203-.013-.067.064-.05.135.012.197l.647.635-.002-.001Z"></path>
<g fill="rgb(237, 55, 38)"><path class="ic-a-ddp_svg__ic_a_ddp" d="m4.169 3.897.153-.072c.064-.031.128-.063.193-.091.01-.006.027 0 .041 0 0 .01-.006.023-.004.034.005.022.009.051.024.063.055.045.112.089.173.123a.308.308 0 0 1 .13.16c.047.109.048.107.166.13-.021.019-.033.035-.05.044-.104.05-.209.1-.314.148-.022.01-.048.01-.072.016-.002-.014-.005-.018-.003-.02.016-.026.053-.057.048-.075-.022-.064-.044-.14-.091-.181-.099-.088-.213-.157-.322-.232-.02-.013-.044-.019-.066-.028l-.006-.02ZM3.628 5.29c.046.06.094.126.146.19.015.018.041.027.058.045.07.072.135.147.208.217.027.026.064.042.103.065-.006.005-.017.02-.031.027-.1.05-.2.096-.299.143a.112.112 0 0 1-.033.009c-.01.001-.02-.003-.03-.006.003-.01.002-.024.008-.03.035-.03.015-.056-.005-.081-.023-.03-.05-.043-.088-.023-.038.02-.077.038-.116.057-.018-.04-.018-.04.117-.122l-.13-.151c-.046-.052-.094-.101-.138-.155-.046-.055-.034-.08.034-.105.062-.02.122-.049.196-.08ZM2.562 6.527c.086-.069.033-.126.007-.185-.053-.113-.103-.227-.157-.34-.012-.026-.027-.049-.042-.074-.014.002-.027.005-.04.004-.01 0-.018-.007-.028-.012.005-.01.008-.025.017-.03l.307-.142.087.19c.055.119.11.237.168.354.007.015.037.023.058.03.013.003.028-.003.042-.004.004.006.008.011.011.018-.02.015-.038.034-.06.047a.731.731 0 0 1-.106.051c-.033.013-.07.045-.1-.028-.027.082-.061.136-.164.121Zm-.852-1.45c.02-.03.025-.048.037-.053.098-.048.197-.094.302-.143l.298.638c-.099.047-.193.093-.288.136-.016.006-.035.003-.053.004a.366.366 0 0 0 .018-.046c.004-.018.015-.04.008-.055-.064-.142-.133-.282-.198-.423-.02-.048-.043-.086-.124-.058Zm1.914-.937.148-.046.125-.078.063.13c.063.136.127.271.188.408.015.033.034.051.073.042.011-.002.026.008.039.012-.008.011-.015.026-.024.032-.026.015-.053.026-.085.042V4.61l-.043.017.03.06c-.085.04-.168.079-.254.117-.009.005-.024-.003-.035-.005.005-.013.005-.03.014-.037.032-.022.029-.043.014-.076-.085-.178-.165-.356-.253-.546Zm.365.19-.008.006c-.01.058-.018.115-.026.173.02-.028.04-.056.046-.086.004-.03-.007-.063-.012-.093Zm-.736.792c-.034.005-.068.006-.101.013-.013.004-.022.023-.035.028-.148.043-.253.03-.314-.118-.043-.103-.094-.203-.14-.304-.018-.037-.032-.073-.086-.058-.005 0-.015-.011-.036-.028l.4-.189.013.018-.044.059c.07.157.138.316.214.472.012.025.054.035.084.052.016.01.035.017.052.025a.251.251 0 0 0-.007.03Zm1.821.274a6.823 6.823 0 0 0-.235.093c-.023.01-.046.022-.07.029-.011.003-.027-.004-.04-.013.033-.023.046-.038.025-.08-.068-.138-.128-.279-.193-.417-.017-.035-.04-.066-.063-.101l-.04.033c-.005-.006-.012-.016-.011-.017.01-.01.02-.023.034-.03l.233-.118c.04-.022.064-.02.085.028.087.195.179.387.275.593Zm-.333-.354c.024-.032 0-.076-.062-.094.02.032.04.063.062.094Zm.095-.302c.183-.11.399-.064.492.108.11.202.01.415-.194.51-.006-.048.019-.07.048-.086l-.122-.261c-.03-.066-.057-.135-.093-.197-.015-.024-.05-.037-.078-.052-.016-.01-.035-.016-.053-.022Zm-2.649.117-.052.03a.602.602 0 0 1-.02-.038c.12-.056.235-.07.353.002l-.127.065.009.022c.017-.006.037-.007.051-.017.099-.07.12-.07.188.033a.319.319 0 0 1 .031.33c-.041.088-.097.17-.219.2l.016-.061c.005-.026.021-.057.013-.078a10.645 10.645 0 0 0-.18-.393c-.016-.033-.04-.061-.063-.095Zm1.738 1.407c.036-.02.07-.042.108-.058l.66-.309.674-.314.578-.27c.098-.045.194-.091.292-.135.053-.023.086-.056.08-.117 0-.014.005-.028.007-.045-.067-.031-.055-.086-.038-.142l-.002.001c.024.055.054.107.07.164a.132.132 0 0 1-.067.162c-.12.061-.242.118-.365.176l-.412.191L4.577 6l-.616.287c-.01.004-.025-.003-.038-.004-.002-.006 0-.013.002-.02Zm-2.832-.966c-.031-.058-.055-.098-.076-.14a.146.146 0 0 1 .067-.2c.193-.092.388-.181.582-.273.12-.057.236-.118.357-.174.153-.07.308-.138.461-.209.188-.086.374-.177.562-.263.092-.043.185-.081.277-.123.04-.017.076-.039.115-.057l.014.021c-.024.018-.046.04-.072.053-.117.057-.237.111-.355.165-.221.102-.443.2-.664.303-.225.105-.446.213-.67.319l-.519.24c-.138.062-.154.102-.087.237.007.015.016.03.02.046.001.014-.006.028-.012.055Z"></path><path class="ic-a-ddp_svg__ic_a_ddp" d="M3.462 3.836c.062 0 .096-.068.158-.034.006.003.021-.013.032-.02.036-.025.07-.056.109-.077.06-.032.123-.062.187-.088.107-.045.21-.1.315-.149.108-.05.219-.096.327-.146l.625-.294c.14-.065.204-.013.266.12a4.65 4.65 0 0 1 .195.446c.003.008 0 .017-.001.026l-.014.007c-.02-.034-.04-.066-.056-.1-.065-.139-.126-.276-.19-.414-.034-.07-.094-.085-.171-.05-.249.116-.497.23-.746.344-.036.016-.07.04-.107.051-.036.012-.077.012-.114.022-.02.006-.05.006-.044.044.001.005-.018.015-.03.02-.082.041-.167.08-.25.12-.132.062-.265.122-.396.185-.03.016-.058.028-.095-.013Zm.463 2.428-.005.018c-.066.04-.131.084-.201.117-.34.162-.683.32-1.024.479-.182.084-.363.17-.544.252-.12.055-.192.026-.254-.095-.023-.044-.055-.085-.027-.15.028.055.053.102.075.15.036.077.084.098.162.063.12-.054.238-.11.358-.163.175-.08.351-.16.526-.242.14-.064.276-.134.415-.199.137-.063.275-.121.413-.181l.106-.05Zm-.828-.321c-.016-.01-.03-.018-.042-.027l-.015.005c.042.058.01.088-.034.113l-.14.082c.008-.066.024-.117.016-.163-.01-.051-.05-.096-.065-.147-.018-.072-.105-.02-.129-.084l.172-.064.116.138.017-.013-.074-.123a.175.175 0 0 1 .178.055.184.184 0 0 1 0 .228Zm1.144-.63c.016-.005.035-.005.04-.013.026-.052.048-.038.068.005l.032-.035c.01.016.02.028.026.043.026.055.046.114.077.167.027.047.034.127.132.096-.121.09-.252.14-.38.198-.006.003-.02-.01-.038-.019.047-.026.063-.054.04-.1-.005-.008.009-.033.02-.042.029-.02.032-.041.018-.07-.022-.046-.048-.09-.058-.136-.004-.03.015-.066.023-.095Zm.166.36.075-.038-.017-.097a2.175 2.175 0 0 0-.063.05c-.01-.07-.01-.07-.062-.051l.067.136Zm1.878-.799c-.037.011-.054-.003-.07-.04-.104-.228-.21-.454-.315-.68-.059-.128-.12-.257-.178-.385-.012-.027-.028-.053-.036-.081-.004-.01.007-.026.012-.04h.02c.056.127.112.255.171.382.033.071.07.139.102.21.099.212.196.424.293.635a.025.025 0 0 0 .002 0ZM1.74 6.7c-.035-.07-.07-.139-.102-.21-.043-.094-.084-.19-.128-.284-.072-.156-.145-.31-.219-.465-.02-.044-.043-.086-.062-.131-.006-.018-.001-.04-.001-.06.008 0 .015-.002.023-.004.088.192.18.383.263.577.082.189.202.363.246.568l-.02.009Zm1.653-1.921c-.018-.017-.034-.027-.042-.043-.035-.075-.059-.157-.103-.227-.03-.046-.085-.075-.13-.113.04-.06.093-.064.13 0 .042.075.084.15.123.228.008.014.002.035.003.054.074.046.088.126.091.202.004.091-.065.142-.131.19-.028-.026-.029-.045-.001-.067.062-.048.086-.108.055-.187-.005-.014.004-.034.005-.037Zm.027.797c.012.043.03.084.036.127.011.083.011.168.021.251.01.088.015.089.103.084.005 0 .01.004.015.005-.004.043-.139.113-.222.115.002-.008.002-.015.006-.019.069-.085.036-.182.028-.274a10.05 10.05 0 0 1-.02-.256c0-.01.007-.021.01-.03l.022-.003Zm.503-.423.25-.128c.005.003.01.008.017.01-.012.034-.029.067-.037.102-.004.018.003.041.008.062.015.057-.012.103-.03.152l-.015.037c-.028-.06-.054-.12-.086-.177-.01-.017-.039-.023-.06-.03-.012-.005-.027-.005-.04-.006-.004-.009-.005-.016-.007-.022Z"></path><path class="ic-a-ddp_svg__ic_a_ddp" d="M4.832 3.932c-.054-.007-.052-.042-.051-.077.002-.053.028-.11-.018-.16-.003-.003.017-.032.03-.043.015-.011.035-.015.053-.022l-.008-.019-.16.074-.007-.005c.011-.012.02-.028.034-.035a3.51 3.51 0 0 1 .172-.082c.01-.005.027 0 .042.001-.003.014-.004.028-.01.04-.017.047-.042.09-.053.138-.013.06-.016.124-.024.19Zm-.712-.025c.004.012.006.025.012.037.021.047.048.093.065.142.007.017-.006.043-.01.064-.02-.008-.052-.01-.06-.027-.026-.046-.067-.061-.11-.079-.019-.007-.032-.027-.048-.04.014-.012.028-.025.043-.035.029-.018.06-.032.089-.047l.019-.015Zm-.702.343c.047-.029.114.008.132.069a.27.27 0 0 1 .011.088c0 .015-.017.04-.026.04-.016-.001-.041-.012-.048-.027-.025-.053-.046-.111-.069-.17Zm.882.884c-.035-.014-.073-.025-.103-.048-.01-.007-.007-.06.005-.066.037-.022.074-.057.143-.039-.132.032-.01.099-.046.153Zm-.968-.829-.045.097-.031-.088.06-.02c.006.005.011.007.016.01ZM1.127 5.376c.043-.02.052-.009.048.082a5.41 5.41 0 0 1-.048-.082Z"></path></g></g><defs><clipPath id="ic-a-ddp_svg__a"><path class="ic-a-ddp_svg__ic_a_ddp" fill="rgb(255,255,255)" d="M0 0h12v12H0z" transform="translate(1 1)"></path></clipPath></defs>
</svg>