<svg xmlns="http://www.w3.org/2000/svg" fill="none" viewBox="0 0 14 14" width="50px" height="50px" role="img" class="styles_image__7oF58">
<path class="ic-a-delivered_at_place_unloaded_svg__ic_a_delivered_at_place_unloaded" fill="rgb(255,255,255)" d="M10.28 6.416h-.372v-.372h.372v.372Zm-.372 2.32v-.37h.373v.37h-.373Zm.373 1.954v.372h-.37v-.371h.37Z"></path>
<path class="ic-a-delivered_at_place_unloaded_svg__ic_a_delivered_at_place_unloaded" fill="rgb(0,0,0)" d="M3.538 6.038h-.405V2.75h.37v.366c.065-.03.11-.05.155-.073 1.394-.669 2.789-1.338 4.181-2.01a.25.25 0 0 1 .246 0c1.603.774 3.208 1.544 4.813 2.313.08.036.103.08.102.165-.004.318-.001.637-.001.97h-.383v8.516H1V7.2h1.192l-.966-1.548h.728V1.976h.386v4.05h-.41c.023.045.033.074.05.1.195.315.391.629.59.943.1.16.225.162.324.005.202-.32.403-.642.603-.963l.041-.074v.001Zm8.682-1.545h-8.7v1.16h.719l-.966 1.55h1.209v2.695h.774v-4.63h3.486v.382h3.098v6.958h.38V4.491v.002Zm.39-.4c0-.123-.005-.231.002-.34.005-.082-.021-.127-.1-.164a1394.57 1394.57 0 0 1-4.443-2.133.214.214 0 0 0-.212 0c-.437.215-.878.424-1.318.633-.976.469-1.953.937-2.928 1.407-.039.019-.095.057-.097.089-.009.167-.004.335-.004.508h9.102-.001ZM5.65 7.978v1.935h1.93v2.698h.76V7.978h-.77v.76H6.413v-.76H5.65ZM1.384 9.901H4.08v-2.31h-.768v.761H2.151V7.59h-.766v2.311Zm2.7.402H3.31v.76H2.15v-.76h-.762v2.31h2.695v-2.31Zm3.097 2.31v-2.309H6.41v.756H5.247v-.756h-.763v2.308h2.697v.002ZM5.65 5.655v1.922h2.695v-1.92H7.57v.758H6.413v-.76H5.65Zm5.023 1.147H9.512v-.757H8.75v1.92h2.694v-1.92h-.77v.758Zm.77 3.489V8.367h-.771v.757H9.51v-.757h-.764v1.921h2.698-.002Zm-2.7 2.324h2.697V10.69h-.768v.762H9.51v-.762h-.765v1.925h-.002ZM7.18 6.029v-.37h-.37v.37h.37Zm3.1.388v-.372h-.373v.372h.372Zm-7.363 1.55v-.375h-.368v.376h.368Zm4.265.013h-.37v.37h.37v-.37Zm2.724.757h.373v-.37h-.373v.37Zm-6.983 1.57h-.375v.367h.375v-.367Zm3.096-.004h-.372v.374h.372v-.374Zm4.26.389h-.37v.37h.37v-.37Z"></path>
<path class="ic-a-delivered_at_place_unloaded_svg__ic_a_delivered_at_place_unloaded" fill="rgb(0,0,0)" d="M3.129 1.973h.373v.372H3.13v-.372Z"></path>
<path class="ic-a-delivered_at_place_unloaded_svg__ic_a_delivered_at_place_unloaded" fill="rgb(255,255,255)" d="M12.221 4.493v8.117h-.38V5.652H8.743V5.27H5.258V9.9h-.775V7.204H3.274l.966-1.55h-.72v-1.16h8.701v-.001Z"></path>
<path class="ic-a-delivered_at_place_unloaded_svg__ic_a_delivered_at_place_unloaded" fill="rgb(0, 141, 197)" d="M12.612 4.093H3.51c0-.173-.005-.34.004-.508.002-.032.058-.069.097-.089.975-.47 1.952-.938 2.928-1.407.44-.21.88-.42 1.318-.633a.217.217 0 0 1 .212 0c1.48.713 2.96 1.424 4.443 2.133.079.038.105.083.1.165-.007.108-.001.216-.001.339Z"></path>
<path class="ic-a-delivered_at_place_unloaded_svg__ic_a_delivered_at_place_unloaded" fill="rgb(255,255,255)" d="M5.651 7.978h.763v.76h1.158V7.98h.769v4.632h-.759V9.915h-1.93V7.978ZM1.385 9.901v-2.31h.766v.761h1.161V7.59h.769v2.311H1.384h.001Zm2.699.402v2.31H1.39v-2.31h.762v.76h1.161v-.76h.772Z"></path>
<path class="ic-a-delivered_at_place_unloaded_svg__ic_a_delivered_at_place_unloaded" fill="rgb(255,255,255)" d="M7.182 12.614H4.486v-2.309h.763v.757H6.41v-.757h.771v2.31-.001Zm-1.531-6.96h.763v.76h1.158v-.758h.774v1.92H5.651V5.654Z"></path>
<path class="ic-a-delivered_at_place_unloaded_svg__ic_a_delivered_at_place_unloaded" fill="rgb(0, 141, 197)" d="M10.673 6.801v-.759h.77v1.92H8.75v-1.92h.762V6.8h1.161Zm.771 3.489H8.746V8.367h.764v.757h1.162v-.757h.77v1.921h.002Zm-2.699 2.322v-1.924h.765v.762h1.162v-.762h.768v1.924H8.744Z"></path>
<path class="ic-a-delivered_at_place_unloaded_svg__ic_a_delivered_at_place_unloaded" fill="rgb(255,255,255)" d="M7.18 6.028h-.37v-.371h.37v.37ZM2.918 7.967H2.55V7.59h.368v.377Zm4.265.013v.37h-.37v-.37h.37Zm-4.259 2.325v.367H2.55v-.367h.374Zm3.096-.004v.375h-.372v-.375h.373ZM2.342 5.993h-.409c.023.045.033.074.049.1.195.315.392.629.59.943.1.16.226.162.325.005.202-.32.402-.642.603-.963.012-.02.022-.04.04-.074h-.404V2.715h-.794v3.278Z"></path>
</svg>