<svg xmlns="http://www.w3.org/2000/svg" fill="none" viewBox="0 0 14 14" width="50px" height="50px" role="img" class="styles_image__7oF58">
    <path class="ic-a-ex_works_svg__ic_a_ex_works" fill="rgb(0, 141, 197)" d="M4.285 4.347h5.458l-.18-1.68-1.39-.528-.013-.556-.806-.125L6.424 1l-.528.5-.056.639-.472.042-.708.486-.209 1.208-.166.472Z"></path>
    <path class="ic-a-ex_works_svg__ic_a_ex_works" fill="rgb(0, 0, 0)" d="M7.59 1a.83.83 0 0 1 .57.583c0 .028.041.056.083.07.986.347 1.57 1.028 1.778 2.055 0 .028.014.042.014.07 0 .097.041.153.125.208.389.195.472.695.208 1.028a.53.53 0 0 1-.07.083c.07.167.167.32.195.486.111.57-.305 1.084-.903 1.111-.083 0-.125.028-.152.112A2.657 2.657 0 0 1 8.7 7.972c-.027.028-.041.084-.055.14-.014.166 0 .346 0 .527h.208c.375 0 .764-.028 1.125.083 1.042.32 1.667 1.028 1.89 2.07.055.264.04.555.055.833.014.361 0 .722 0 1.083 0 .209-.083.292-.292.292H2.368c-.208 0-.292-.083-.292-.292 0-.472-.014-.958 0-1.43.028-1.042.5-1.82 1.403-2.347a2.43 2.43 0 0 1 1.208-.292h.667v-.583c0-.028-.028-.056-.055-.084a2.702 2.702 0 0 1-.737-1.18c-.027-.07-.055-.098-.138-.111a.875.875 0 0 1-.848-.542c-.153-.333-.11-.667.125-.972.014-.014.014-.028.028-.042 0 0 0-.014-.028 0-.07-.139-.166-.292-.194-.444-.07-.292.097-.584.36-.723a.205.205 0 0 0 .112-.152c.153-1.042.736-1.75 1.722-2.125.098-.042.153-.07.195-.181.083-.264.278-.417.528-.5H7.59Zm1.528 4.292H4.896v.597c-.014.5.11.944.389 1.347.402.556.93.889 1.625.93.903.042 1.75-.541 2.07-1.416.18-.472.124-.958.138-1.458Zm-4.222 7.236H6.77V10.5c0-.042-.028-.083-.056-.111-.389-.417-.778-.82-1.166-1.222-.014-.028-.056-.056-.084-.056h-.57V10.5c0 .056 0 .111-.013.167-.042.097-.111.152-.222.152a.209.209 0 0 1-.209-.152.706.706 0 0 1-.027-.153V9.125c-.167.028-.32.07-.459.097v3.292h.459v-.486c0-.167.097-.264.236-.278.139 0 .236.111.236.278v.5ZM9.118 9.11h-.5a.256.256 0 0 0-.167.07c-.388.388-.763.791-1.138 1.194a.256.256 0 0 0-.07.167v1.972h1.875v-.528c0-.111.056-.18.153-.222a.188.188 0 0 1 .236.055c.056.07.07.14.07.209.013.166 0 .32 0 .5h.458V9.236c-.139-.042-.292-.083-.445-.125v1.445c0 .152-.097.263-.236.263-.125 0-.222-.11-.222-.263v-.417c-.014-.347-.014-.68-.014-1.028ZM5.84 2.14c-.778.25-1.347 1.028-1.389 1.736H9.55c-.07-.792-.68-1.528-1.39-1.736v1.04c.015.138-.096.222-.208.222-.125.014-.222-.084-.236-.222V1.819c0-.25-.11-.36-.36-.36H6.66c-.25 0-.361.11-.361.36v1.348c-.014.139-.112.236-.237.236-.11 0-.208-.097-.222-.222V2.139Zm1.18 2.208H4.286c-.056 0-.112 0-.167.014-.097.028-.153.111-.153.222s.056.18.167.223a.473.473 0 0 0 .139.013h5.486c.195 0 .306-.083.306-.236 0-.152-.111-.236-.306-.236H7.021Zm-3.541 8.18V9.515c-.014 0-.028.014-.042.014-.486.375-.805.889-.86 1.514-.042.43-.015.86-.029 1.277v.195c.32.014.625.014.931.014ZM10.535 9.5v3.014h.93v-1.167c0-.458-.124-.889-.374-1.278a2.168 2.168 0 0 0-.556-.569ZM8.174 8.347c-.778.39-1.556.39-2.334 0v.292a.254.254 0 0 0 .084.236c.277.292.555.583.847.875.083.083.153.167.222.236h.042c.375-.389.736-.778 1.11-1.167a.15.15 0 0 0 .043-.097c0-.125-.014-.236-.014-.375Zm-3.75-3.055a.468.468 0 0 0-.473.472c0 .25.209.458.473.444v-.916Zm5.166 0v.93c.25 0 .459-.194.473-.444a.48.48 0 0 0-.473-.486Z"></path>
</svg>