<svg xmlns="http://www.w3.org/2000/svg" fill="none" viewBox="0 0 14 14" width="60px" height="60px" role="img" class="styles_image__7oF58">
    <path class="ic-a-truck_svg__ic_a_truck" fill="rgb(0,0,0)" d="M12.999 8.854c-.05.093-.126.128-.232.123-.163-.007-.328 0-.492-.003-.071-.001-.107.013-.126.095a.815.815 0 0 1-.39.52c-.116.069-.22.052-.276-.042-.053-.091-.023-.182.09-.255.193-.125.282-.3.248-.527a.497.497 0 0 0-.4-.41.505.505 0 0 0-.418.888c.03.025.065.043.097.066.09.064.112.162.059.245-.05.077-.147.103-.238.054a.812.812 0 0 1-.425-.533c-.021-.08-.052-.105-.133-.103a36.1 36.1 0 0 1-.984 0c-.077 0-.114.014-.136.1a.85.85 0 0 1-.828.636.86.86 0 0 1-.828-.64l-.025-.09h-.204c0 .095.002.183 0 .271-.002.146-.062.21-.205.21H5.969c-.148 0-.208-.066-.21-.218v-.255c-.105-.035-.149-.01-.178.097a.848.848 0 0 1-.825.623.86.86 0 0 1-.827-.64 1.287 1.287 0 0 0-.028-.088c-.02-.002-.035-.005-.05-.005-.128-.004-.213.052-.256.17a.864.864 0 0 1-.824.565.864.864 0 0 1-.808-.62 2.74 2.74 0 0 1-.031-.115h-.675c-.208 0-.257-.047-.257-.252v-.503c0-.166.06-.228.225-.228h1.048v-.24H1.216c-.147 0-.215-.063-.215-.202V4.49c0-.125.063-.193.186-.194.28-.004.562-.004.843 0 .117.001.192.078.188.18-.004.097-.074.165-.188.167-.18.004-.36.002-.54.003h-.132v2.746h7.196V4.645H2.746c-.05 0-.101.001-.151-.008-.088-.015-.137-.076-.14-.163-.002-.088.044-.15.13-.17.042-.01.086-.01.129-.01h5.94c.207 0 .26.05.26.254V7.5c0 .195-.057.25-.252.25H7.64v.233h1.978V7.56h-.27c-.15-.003-.215-.065-.215-.215v-1.3c0-.158.062-.216.223-.218h.272V5.38c0-.186.057-.242.248-.242l1.98-.001c.108 0 .183.036.25.12.296.373.596.742.894 1.113v2.484h-.001Zm-.357-2.182h-1.437c-.219 0-.352-.132-.358-.35a6.233 6.233 0 0 1 0-.41c.01-.194.133-.316.328-.328.113-.006.226-.002.34-.002h.366l.009-.051c-.053-.015-.107-.039-.159-.039-.543-.002-1.085-.002-1.628-.001-.04 0-.082.005-.12.008v3.125c.159 0 .31.003.461-.002.023 0 .055-.037.067-.064.152-.362.423-.564.813-.561.384.001.651.204.803.56.013.028.05.063.077.065.143.006.286.002.436.002v-.438c-.223-.03-.29-.074-.285-.188.001-.037.014-.09.04-.105.073-.04.157-.066.247-.102v-1.12ZM7.277 7.756H2.638v.227h4.639v-.227ZM8.92 8.85a.51.51 0 0 0-.507-.507.508.508 0 0 0 .001 1.016.507.507 0 0 0 .505-.509h.001Zm-6.64.004c0 .281.228.507.508.505a.511.511 0 0 0 .505-.51.515.515 0 0 0-.511-.506.507.507 0 0 0-.503.511h.002Zm1.971-.006a.504.504 0 0 0 .501.51.51.51 0 0 0 .511-.503.514.514 0 0 0-.503-.512.507.507 0 0 0-.509.505Zm1.211-.5c.039.08.063.146.101.203.02.032.064.07.097.07.616.003 1.234.003 1.85 0 .029 0 .074-.015.085-.036.041-.073.07-.153.106-.238H5.463v.001Zm5.74-2.035h1.293c-.085-.11-.163-.2-.232-.296a.19.19 0 0 0-.176-.087c-.255.006-.508.002-.762.003-.04 0-.082.004-.124.006v.374h.001ZM1.357 8.624l.546-.001c.022 0 .054-.017.064-.035.039-.074.07-.153.109-.237h-.718v.274h-.001Zm8.135-2.44v1.028l.127-.006V6.185h-.127Zm-2.494 2.8h-.884v.123h.884v-.123Zm2.622-.63h-.494c.037.08.065.151.102.219.011.022.042.047.066.049.108.005.215.002.327.002v-.27Zm-6.118-.005c.055.183.124.324.349.278.16-.034.1-.197.184-.278H3.5h.001Z"></path>
    <path class="ic-a-truck_svg__ic_a_truck" fill="rgb(0,0,0)" d="M2.002 6.026v-.879c0-.14.062-.215.175-.213.11 0 .175.078.175.217v1.745c0 .135-.073.218-.179.216-.107 0-.171-.081-.171-.22v-.867.001Zm3.685-.009v.88c0 .135-.069.217-.176.217-.108 0-.174-.085-.174-.22V5.147c0-.138.066-.215.178-.213.11 0 .173.076.173.217v.868l-.001-.002Zm1.873 0V5.15c0-.14.062-.216.173-.218.111 0 .177.077.177.214v1.747c0 .135-.067.218-.175.22-.107 0-.175-.081-.176-.218v-.879l.001.001Zm-4.098.012v.867c0 .137-.067.219-.176.218-.106 0-.175-.085-.175-.22V5.148c0-.138.066-.214.178-.213.11 0 .172.075.172.217v.88l.001-.003Zm.763-.014v-.88c0-.099.033-.177.14-.197.118-.023.205.053.21.19.004.152 0 .304 0 .457V6.84c0 .04 0 .078-.005.116-.014.099-.076.154-.174.157-.092.004-.167-.069-.17-.172-.005-.25-.002-.5-.002-.75v-.176h.001Zm2.572.002c0 .304.003.61 0 .914-.002.11-.08.183-.176.181-.094 0-.163-.074-.172-.185-.002-.023 0-.047 0-.07V5.112c.011-.114.076-.18.177-.178.102 0 .17.065.171.181.004.3 0 .602 0 .902Zm4.349 2.831c0-.114.073-.19.178-.187.102.001.175.082.172.195 0 .111-.076.189-.18.188-.102-.002-.173-.08-.171-.195v-.001Z"></path>
    <path class="ic-a-truck_svg__ic_a_truck" fill="rgb(0,141,197)" d="M12.642 6.672V7.79c-.09.036-.174.061-.248.102-.025.014-.037.068-.04.105-.004.114.063.157.286.188v.438c-.15 0-.293.004-.436-.002-.027 0-.064-.038-.077-.066-.152-.355-.418-.558-.804-.56-.39 0-.661.2-.812.562-.012.026-.044.062-.067.064-.15.006-.303.002-.46.002V5.5c.037-.003.078-.008.12-.008.542 0 1.084-.001 1.627.001.053 0 .106.026.159.038l-.01.052h-.365c-.114 0-.226-.004-.34.002-.195.012-.318.134-.328.329a4.879 4.879 0 0 0 0 .41c.006.217.14.347.358.349.433.002.866 0 1.3 0h.137Z"></path>
    <path class="ic-a-truck_svg__ic_a_truck" fill="rgb(255,255,255)" d="M7.277 7.756v.227H2.638v-.227h4.639ZM8.921 8.85a.506.506 0 1 1-1.01.003.51.51 0 0 1 .504-.51.51.51 0 0 1 .507.507Zm-.508-.189c-.105.001-.174.08-.173.193 0 .113.074.19.178.188.102-.001.175-.083.174-.194 0-.111-.076-.19-.18-.188v.001Zm-6.131.193c0-.281.223-.51.502-.511a.516.516 0 0 1 .511.506.511.511 0 0 1-.505.51.503.503 0 0 1-.507-.505h-.001Zm.33-.002c0 .113.07.19.174.19.103 0 .177-.082.177-.192s-.074-.189-.178-.189c-.106 0-.174.076-.172.19Zm1.64-.004a.507.507 0 0 1 .509-.505.509.509 0 0 1-.008 1.016.504.504 0 0 1-.5-.511Zm.331 0c-.001.115.066.193.17.195.102.003.179-.075.181-.186.003-.111-.07-.193-.172-.195-.106-.002-.176.072-.179.186Zm6.224 0a.507.507 0 0 1 .509-.505.509.509 0 0 1-.008 1.016.504.504 0 0 1-.5-.511Zm.331 0c-.001.115.067.193.17.195.102.003.18-.075.182-.186.002-.111-.07-.193-.173-.195-.106-.002-.176.072-.179.186Z"></path>
    <path class="ic-a-truck_svg__ic_a_truck" fill="rgb(0,141,197)" d="M5.463 8.348h2.24c-.038.084-.067.165-.107.238-.013.022-.056.037-.085.037-.616.002-1.234.002-1.85-.001-.033 0-.075-.037-.097-.07-.038-.057-.062-.123-.1-.203Z"></path>
    <path class="ic-a-truck_svg__ic_a_truck" fill="rgb(255,255,255)" d="M11.203 6.313v-.374c.041-.002.084-.006.124-.006.255 0 .508.003.762-.003.08 0 .13.025.176.087.07.097.147.187.233.296h-1.295Z"></path>
    <path class="ic-a-truck_svg__ic_a_truck" fill="rgb(0,141,197)" d="M1.357 8.623v-.275h.718c-.039.086-.07.164-.109.238-.009.018-.04.034-.064.034-.179.003-.358.002-.547.002h.002Z"></path>
    <path class="ic-a-truck_svg__ic_a_truck" fill="rgb(0,141,197)" d="M9.492 6.183h.127v1.021l-.127.007V6.183Z"></path>
    <path class="ic-a-truck_svg__ic_a_truck" fill="rgb(0,141,197)" d="M6.998 8.984v.123h-.884v-.123h.884Zm2.624-.631v.271c-.113 0-.22.003-.327-.002-.023 0-.054-.027-.067-.049-.037-.068-.065-.14-.102-.22h.496Zm-6.119-.005h.535c-.083.082-.024.246-.184.278-.225.046-.296-.095-.35-.278Z"></path>
    <path class="ic-a-truck_svg__ic_a_truck" fill="rgb(0,0,0)" d="M8.413 8.661c.104-.001.178.076.179.188 0 .112-.072.192-.174.195-.104.001-.177-.077-.178-.188 0-.114.068-.192.173-.194Zm-5.8.191c0-.117.067-.19.172-.19.104 0 .178.078.178.189 0 .11-.074.191-.176.191-.104 0-.174-.076-.174-.19Zm1.97-.005c.001-.114.073-.188.18-.186.101.003.174.085.172.195-.003.11-.08.189-.182.186-.103-.002-.171-.08-.17-.195Z"></path>
    <path class="ic-a-truck_svg__ic_a_truck" fill="rgb(0,141,197)" d="M2.692 4.645h-.663c-.18.003-.36 0-.54 0h-.132v2.746h7.196V4.645H2.692Zm-.339 2.252c0 .134-.073.217-.179.215-.107 0-.17-.081-.17-.22V5.146c0-.14.062-.214.174-.212.11 0 .175.077.175.217v1.747ZM7.56 5.15c0-.14.062-.216.173-.217.111 0 .177.076.177.213v1.747c0 .135-.067.218-.175.22-.107 0-.175-.08-.176-.217V5.15l.001.001Zm-1.11-.037c.01-.114.075-.18.176-.178.102 0 .17.065.171.182.004.3 0 .601 0 .902 0 .304.003.61-.001.913-.001.11-.08.183-.175.182-.095-.002-.164-.074-.173-.186V5.183c0-.023 0-.047.002-.07Zm-1.113.035c0-.138.066-.214.177-.213.111 0 .174.077.174.217V6.9c0 .135-.069.216-.176.216-.108 0-.174-.084-.174-.22V5.15l-.001-.002Zm-1.11.868v-.88c0-.099.032-.177.14-.197.117-.023.204.054.208.19.005.152.001.304.001.458V6.84c0 .04 0 .078-.005.117-.014.098-.076.153-.174.157-.092.004-.167-.07-.17-.173-.005-.25-.002-.5-.002-.75v-.176l.001.001ZM3.11 5.148c0-.138.066-.214.178-.213.11 0 .172.075.172.217V6.9c0 .137-.068.219-.176.217-.106 0-.175-.084-.175-.22V5.152l.001-.003Z"></path>
</svg>