<svg xmlns="http://www.w3.org/2000/svg" fill="none" viewBox="0 0 14 14" width="60px" height="60px" role="img" class="styles_image__7oF58">
    <path class="ic-a-free_on_board_svg__ic_a_free_on_board" fill="rgb(255,255,255)" d="M7.358 7.416h4.585v2.438H7.358z"></path>
    <path class="ic-a-free_on_board_svg__ic_a_free_on_board" fill="rgb(0, 141, 197)" d="M12.494 6.267H5.972v3.957h6.522V6.267Z"></path>
    <path class="ic-a-free_on_board_svg__ic_a_free_on_board" fill="rgb(0,0,0)" d="M1.752 12.327c0-.235.008-4.181.014-4.416.004-.136.078-.224.218-.238.137-.014.232.065.257.212.01.061.01.124.01.187v4.253h2.41V5.452h-2.41c0 .326.002.642-.002.958-.002.187-.1.3-.247.3-.156-.003-.252-.13-.24-.341.014-.253.033-.505.014-.758-.038-.534-.028-.652.339-.654h.507v-.695c0-.214-.137-.348-.353-.348-1.188 0 .273-.002-.914.002-.151 0-.276-.03-.355-.17V2.82a.37.37 0 0 1 .36-.373h.005c1.184.002-.281 0 .9.004a.342.342 0 0 0 .273-.11 1.152 1.152 0 0 1 1.636 0c.082.081.161.11.274.11 1.208-.004 3.844-.002 5.053-.002.06 0 .124.004.185.012.134.02.204.114.2.238-.004.135-.086.22-.226.235-.051.006-.104.004-.155.004H4.53v.479h6.612v-.48H9.199c-.194 0-.304-.083-.31-.232-.006-.169.137-.25.375-.25.72 0 1.215.008 1.928.008.332 0 .454.037.456.295.002.26 0 .52 0 .779 0 .316-.063.377-.385.379h-.328c0 .254.004-.322 0-.086a.317.317 0 0 1-.314.312c-.177.002-.354 0-.532 0h-.6v.515c.05.003.091.007.134.007a.353.353 0 0 1 .344.354v.336c.23 0 .44-.002.652 0a.32.32 0 0 1 .316.31c.002.086 0 .171 0 .263h.214c.51 0 1.017-.002 1.526 0 .218.002.312.081.318.275.006.222.012.446-.004.668-.006.078-.051.188-.112.22-.098.053-.096.118-.096.2 0 .986.002 1.563 0 2.549 0 .094.018.153.104.214.063.043.098.155.106.24.016.186.006.373.004.56 0 .28-.073.353-.348.355h-2.305c-.05 0-.104.002-.155-.008-.124-.024-.19-.11-.19-.232 0-.12.064-.208.188-.233.055-.01.114-.008.171-.008h2.138v-.234H5.965v.234h2.731c.191 0 .293.092.291.247-.004.193-.167.208-.485.208-.843 0-1.644.008-2.567.008-.326 0-.46-.02-.467-.27-.004-.211-.012-.425.004-.637.007-.083.05-.195.114-.234.092-.055.098-.116.098-.202a541.45 541.45 0 0 1 0-2.549c0-.092-.014-.153-.104-.212-.063-.04-.1-.155-.108-.238-.016-.186-.006-.373-.004-.56 0-.2.163-.361.361-.361h1.524c.055 0 .11-.006.173-.008v-.171c.002-.335.063-.396.404-.396h.58c0-.159-.004-.297 0-.432a.267.267 0 0 1 .239-.256c.073-.007.146-.002.224-.002v-.524H7.887a.36.36 0 0 1-.36-.36v.134H4.414c-.13 0-.326.138-.328.25-.006.46-.002.31-.002.785.063.004.114.008.163.008.208.002.415-.004.623.002a.288.288 0 0 1 .281.255c.007.063.003.128.003.191v6.93m1.03-5.183v2.833h6.096V7.15H6.184Zm-.219-.507h6.529v-.222H5.965v.222Zm-2.718-2.78a.692.692 0 0 0 .793-.806.695.695 0 1 0-1.359.293c.07.265.297.473.566.514Zm.345 1.083v-.593h-.467v.593h.467Zm-1.84 5.89v-.173.173Zm.012.67a5.653 5.653 0 0 1-.008-.166l.008.167Zm-.01.677v-.169.17Zm8.686-6.28c-.19-.091-2.337-.073-2.435 0h2.435Zm-.968-.751h-.47v.19h.47v-.19Z"></path>
    <path class="ic-a-free_on_board_svg__ic_a_free_on_board" fill="rgb(0,0,0)" d="M5.16 12.24H1.765v.095h3.397v-.096Z"></path>
</svg>